<svg width="182" height="175" viewBox="0 0 182 175" fill="none" xmlns="http://www.w3.org/2000/svg">
<path d="M9.27364 44.7059C9.16064 44.2126 9.23764 43.7259 9.50364 43.2459C14.9376 33.4125 22.1677 25.1559 31.1937 18.4759C45.2607 8.06254 61.1977 2.0692 79.0037 0.495873C89.2777 -0.410797 99.1937 -0.0741273 108.754 1.50587C123.114 3.8792 136.15 9.34919 147.864 17.9159C155.704 23.6492 162.324 30.7592 167.724 39.2459C167.833 39.4174 167.878 39.622 167.85 39.8233C167.823 40.0247 167.725 40.2098 167.574 40.3459C166.401 41.4259 165.468 42.5259 164.774 43.6459C163.647 45.4459 162.84 46.6059 162.354 47.1259C149.421 60.9059 135.671 73.8159 121.104 85.8559C90.7636 110.929 57.1296 130.286 20.2036 143.926C20.0256 143.993 19.8296 144.002 19.6446 143.952C19.4596 143.902 19.2956 143.795 19.1736 143.646C9.64063 131.999 3.70064 118.976 1.35364 104.576C0.493642 99.2961 0.0436363 93.9992 0.00363625 88.6859C-0.0363637 83.0459 0.253647 77.7559 0.873647 72.8159C2.06065 63.3226 4.84064 54.2592 9.21364 45.6259C9.33564 45.3881 9.35764 45.0588 9.27364 44.7059Z" fill="black"/>
<path d="M66.7039 171.505C56.9639 169.419 47.8639 165.862 39.4039 160.835C38.8839 160.529 38.9039 160.259 39.4639 160.025C65.2039 149.445 89.3539 136.149 111.914 120.135C135.774 103.202 157.781 83.9655 177.934 62.4255C178.354 61.9788 178.634 62.0521 178.774 62.6455C181.427 74.0121 182.171 85.6288 181.004 97.4955C180.044 107.269 177.701 116.215 173.974 124.335C165.114 143.635 151.321 157.426 132.594 165.706C126.801 168.266 120.461 170.27 113.574 171.716C98.1009 174.956 82.4769 174.885 66.7039 171.505Z" fill="black"/>
</svg>
