<svg width="860" height="649" viewBox="0 0 860 649" fill="none" xmlns="http://www.w3.org/2000/svg">
<path d="M240.27 45.2098C240.157 44.7165 240.234 44.2298 240.5 43.7498C245.934 33.9164 253.164 25.6598 262.19 18.9798C276.257 8.56645 292.194 2.57311 310 0.999779C320.274 0.0931091 330.19 0.429779 339.75 2.00978C354.11 4.38311 367.146 9.8531 378.86 18.4198C386.7 24.1531 393.32 31.2631 398.72 39.7498C398.829 39.9213 398.874 40.1259 398.846 40.3272C398.819 40.5286 398.721 40.7137 398.57 40.8498C397.397 41.9298 396.464 43.0298 395.77 44.1498C394.643 45.9498 393.836 47.1098 393.35 47.6298C380.417 61.4098 366.667 74.3198 352.1 86.3598C321.76 111.433 288.126 130.79 251.2 144.43C251.022 144.497 250.826 144.506 250.641 144.456C250.456 144.406 250.292 144.299 250.17 144.15C240.637 132.503 234.697 119.48 232.35 105.08C231.49 99.8 231.04 94.5031 231 89.1898C230.96 83.5498 231.25 78.2598 231.87 73.3198C233.057 63.8265 235.837 54.7631 240.21 46.1298C240.332 45.892 240.354 45.5627 240.27 45.2098Z" fill="black"/>
<path d="M520.84 105.71C520.776 105.734 520.718 105.773 520.671 105.823C520.623 105.873 520.588 105.933 520.568 105.998C520.548 106.064 520.543 106.134 520.554 106.201C520.564 106.269 520.59 106.334 520.63 106.39C532.323 122.523 543.883 138.54 555.31 154.44C557.477 157.453 558.017 160.647 556.93 164.02C556.057 166.713 554.523 168.697 552.33 169.97C550.897 170.803 548.597 171.277 545.43 171.39C534.517 171.79 526.29 171.743 520.75 171.25C517.93 170.997 515.363 169.323 513.05 166.23C499.683 148.343 486.353 130.43 473.06 112.49C472.013 111.083 471.407 110.32 471.24 110.2C470.46 109.667 469.387 109.553 468.02 109.86C467.877 109.891 467.75 109.971 467.657 110.085C467.565 110.199 467.513 110.342 467.51 110.49C467.27 126.51 467.177 142.387 467.23 158.12C467.243 161.773 466.793 164.447 465.88 166.14C463.967 169.66 460.59 171.433 455.75 171.46C450.337 171.487 444.92 171.51 439.5 171.53C430.82 171.563 426.497 167.22 426.53 158.5C426.677 121.387 426.75 84.2733 426.75 47.16C426.75 47.12 426.773 46.85 426.82 46.35C426.887 45.6633 426.613 45.13 426 44.75C425.087 44.1833 425.15 43.2467 426.19 41.94C436.017 29.54 445.38 16.8 454.28 3.72C454.366 3.59379 454.482 3.4905 454.618 3.41906C454.754 3.34762 454.906 3.31019 455.06 3.31C467.627 3.23666 480.19 3.21667 492.75 3.25C498.523 3.26333 503.407 3.60333 507.4 4.27C530.733 8.17 545.207 21.52 550.82 44.32C550.887 44.6 551.033 44.8933 551.26 45.2C551.647 45.72 551.893 46.32 552 47C553.573 56.7533 552.833 66.3133 549.78 75.68C544.947 90.4867 535.3 100.497 520.84 105.71Z" fill="black"/>
<path d="M612.32 130.69C632.96 130.763 653.603 130.787 674.25 130.76C681.17 130.753 685.277 133.473 686.57 138.92C686.883 140.233 687.043 143.63 687.05 149.11C687.057 152.517 687.003 155.923 686.89 159.33C686.79 162.423 686.24 164.76 685.24 166.34C683.073 169.76 679.493 171.48 674.5 171.5C643.953 171.62 613.407 171.547 582.86 171.28C580.093 171.253 577.947 170.807 576.42 169.94C573.567 168.32 571.83 165.907 571.21 162.7C571.063 161.933 571 159.127 571.02 154.28C571.187 110.28 570.957 66.2833 570.33 22.29C570.243 15.8033 570.363 11.9567 570.69 10.75C571.61 7.40333 573.78 5.16667 577.2 4.04C578.807 3.51333 581.7 3.25 585.88 3.25C589.88 3.25 593.877 3.25 597.87 3.25C601.21 3.25 603.713 3.7 605.38 4.6C608.113 6.08667 609.807 8.37667 610.46 11.47C610.62 12.2433 610.74 14.9367 610.82 19.55C611.42 56.4233 611.75 93.3 611.81 130.18C611.81 130.247 611.823 130.313 611.849 130.375C611.874 130.437 611.912 130.493 611.959 130.541C612.007 130.588 612.063 130.626 612.125 130.651C612.187 130.677 612.253 130.69 612.32 130.69Z" fill="black"/>
<path d="M706.08 7.1C707.38 5.52 708.947 4.42 710.78 3.8C711.867 3.43334 713.703 3.25 716.29 3.25C735.277 3.25 754.264 3.25 773.25 3.25C784.444 3.25 794.784 4.65 804.27 7.45C810.917 9.4167 817 12.0933 822.52 15.48C832.954 21.8867 841.094 30.4133 846.94 41.06C847.674 42.4 848.35 43.4867 848.97 44.32C850.037 45.7533 850.71 46.8133 850.99 47.5C855.25 57.8333 857.504 68.9167 857.75 80.75C857.877 86.89 857.787 92.6233 857.48 97.95C857.1 104.45 856.293 110.107 855.06 114.92C852.847 123.6 849.254 131.63 844.28 139.01C840.554 144.537 836.06 149.42 830.8 153.66C818.5 163.573 804.067 169.27 787.5 170.75C779.92 171.43 772.92 171.763 766.5 171.75C749.814 171.71 733.13 171.56 716.45 171.3C713.55 171.26 711.347 170.79 709.84 169.89C706.28 167.763 704.5 164.133 704.5 159C704.5 133.413 704.5 107.83 704.5 82.25C704.5 76.43 704.43 69.7667 704.29 62.26C704.037 48.64 703.857 32.5533 703.75 14C703.737 11.3133 704.514 9.0133 706.08 7.1ZM774.32 50.7296C771.474 56.6629 768.374 62.4596 765.02 68.1196C764.2 69.5129 763.39 70.6629 762.59 71.5696C761.457 72.8496 760.407 73.8062 759.44 74.4396C754.44 77.7062 748.307 80.9796 741.04 84.2596C739.94 84.7596 739.173 85.2162 738.74 85.6296C737.753 86.5829 737.633 87.5629 738.38 88.5696C738.813 89.1496 739.703 89.7429 741.05 90.3496C747.377 93.2029 753.46 96.4996 759.3 100.24C760.5 101.013 761.5 101.836 762.3 102.71C763.3 103.797 764.097 104.83 764.69 105.81C767.91 111.143 771.18 117.373 774.5 124.5C775.334 126.287 776.42 126.817 777.76 126.09C778.434 125.723 779.033 124.967 779.56 123.82C781.92 118.673 784.523 113.66 787.37 108.78C789.41 105.28 791.57 102.596 793.85 100.73C796.97 98.1762 800.583 96.0796 804.69 94.4396C807.277 93.3996 810.337 91.8429 813.87 89.7696C814.85 89.1962 815.463 88.5529 815.71 87.8396C816.13 86.5929 815.644 85.6463 814.25 84.9996C806.937 81.6062 800.557 78.2396 795.11 74.8996C794.03 74.2396 793.073 73.5029 792.24 72.6896C791.02 71.4962 790.21 70.5796 789.81 69.9396C786.863 65.2062 783.323 58.5796 779.19 50.0596C778.39 48.4262 777.357 47.9362 776.09 48.5896C775.437 48.9296 774.847 49.6429 774.32 50.7296Z" fill="black"/>
<path d="M157.83 133.13C165.59 131.437 170.48 126.143 172.5 117.25C173.88 111.163 174.53 104.163 174.45 96.25C174.09 60.91 173.773 37.4933 173.5 26C173.406 22.2 173.366 19.0967 173.38 16.69C173.393 12.87 174.03 10.0367 175.29 8.19C177.41 5.06334 180.896 3.5 185.75 3.5C190.03 3.5 194.313 3.5 198.6 3.5C204.553 3.5 208.133 3.68334 209.34 4.05C212.24 4.92334 214.333 6.79666 215.62 9.67C216.366 11.35 216.73 13.96 216.71 17.5C216.676 23.7533 216.756 30.0033 216.95 36.25C217.516 54.73 217.68 73.21 217.44 91.69C217.44 91.8482 217.409 92.004 217.349 92.1483C217.288 92.2926 217.2 92.4224 217.09 92.53C210.196 99.417 203.426 106.42 196.78 113.54C189.24 121.62 182.333 130.21 176.06 139.31C171.926 145.31 169.343 150.81 168.31 155.81C167.11 161.623 168.263 166.817 171.77 171.39C171.805 171.434 171.829 171.486 171.838 171.542C171.848 171.598 171.842 171.655 171.823 171.708C171.804 171.761 171.772 171.809 171.729 171.846C171.687 171.883 171.635 171.909 171.58 171.92C157.433 175.167 143.506 174.803 129.8 170.83C122.5 168.717 115.843 165.19 109.83 160.25C109.664 160.113 109.457 160.036 109.243 160.031C109.029 160.025 108.82 160.092 108.65 160.22C97.0831 168.827 84.4498 173.42 70.7498 174C62.6031 174.347 55.0398 173.683 48.0598 172.01C26.0531 166.75 11.8864 153.24 5.55978 131.48C4.08645 126.413 3.02978 121.277 2.38978 116.07C1.98312 112.737 1.73979 107.517 1.65979 100.41C1.35979 72.95 1.07312 45.49 0.799788 18.03C0.753118 13.75 1.12645 10.7867 1.91978 9.14C2.94645 7 4.59312 5.43334 6.85979 4.44C8.29312 3.81334 10.4365 3.5 13.2898 3.5C19.1231 3.5 24.9564 3.5 30.7898 3.5C34.2498 3.5 36.8098 3.96 38.4698 4.88C42.0165 6.85333 43.7764 10.31 43.7498 15.25C43.7031 24.05 43.8431 33.97 44.1698 45.01C44.4231 53.59 44.5731 60.25 44.6198 64.99C44.7398 77.1567 44.7864 89.3267 44.7598 101.5C44.7464 107.007 45.3864 112.43 46.6798 117.77C48.8464 126.717 54.2031 131.96 62.7498 133.5C69.0764 134.64 74.4498 133.33 78.8698 129.57C81.8031 127.077 84.0231 123.413 85.5298 118.58C87.0365 113.733 87.7998 108.707 87.8198 103.5C87.8865 82.3333 87.6798 61.1667 87.1998 40C86.8598 25.1933 86.7931 16.2767 86.9998 13.25C87.2731 9.2433 88.9998 6.43667 92.1798 4.83C93.9264 3.94334 96.8798 3.5 101.04 3.5C105.073 3.5 109.11 3.5 113.15 3.5C118.556 3.5 121.776 3.64667 122.81 3.94C125.33 4.65334 127.27 6.17667 128.63 8.51C129.53 10.05 130.016 12.3067 130.09 15.28C130.923 48.3467 131.31 76.67 131.25 100.25C131.23 106.997 131.966 113.1 133.46 118.56C135.106 124.58 138.336 128.857 143.15 131.39C147.583 133.717 152.476 134.297 157.83 133.13Z" fill="black"/>
<path d="M297.7 172.009C287.96 169.923 278.86 166.366 270.4 161.339C269.88 161.033 269.9 160.763 270.46 160.529C296.2 149.949 320.35 136.653 342.91 120.639C366.77 103.706 388.777 84.4694 408.93 62.9294C409.35 62.4827 409.63 62.556 409.77 63.1494C412.423 74.516 413.167 86.1327 412 97.9994C411.04 107.773 408.697 116.719 404.97 124.839C396.11 144.139 382.317 157.93 363.59 166.21C357.797 168.77 351.457 170.774 344.57 172.22C329.097 175.46 313.473 175.389 297.7 172.009Z" fill="black"/>
<path d="M565.44 359.18C558.126 350.753 552.916 341.173 549.81 330.44C548.13 324.626 547.043 318.493 546.55 312.04C546.063 305.626 545.953 299.43 546.22 293.45C546.94 277.423 551.72 262.96 560.56 250.06C571.76 233.726 587.413 222.82 607.52 217.34C630.9 210.966 653.686 212.08 675.88 220.68C680.086 222.313 682.896 223.94 684.31 225.56C686.743 228.346 687.306 231.91 686 236.25C685.286 238.623 683.373 244.26 680.26 253.16C679.14 256.373 677.863 258.66 676.43 260.02C672.843 263.446 668.503 263.736 663.41 260.89C662.116 260.163 661.456 259.796 661.43 259.79C650.783 254.323 639.786 252.503 628.44 254.33C621.6 255.43 615.42 257.773 609.9 261.36C597.633 269.333 591.083 281.546 590.25 298C589.956 303.773 590.41 309.243 591.61 314.41C592.876 319.876 595.06 324.823 598.16 329.25C605.033 339.056 614.92 344.773 627.82 346.4C635.266 347.34 642.39 346.52 649.19 343.94C650.79 343.326 652.33 342.366 653.81 341.06C655.676 339.42 656.62 337.733 656.64 336C656.713 330.666 656.75 325.01 656.75 319.03C656.75 318.925 656.729 318.822 656.688 318.725C656.647 318.629 656.587 318.541 656.512 318.467C656.437 318.394 656.347 318.336 656.249 318.297C656.151 318.258 656.046 318.238 655.94 318.24C646.426 318.353 637.216 318.306 628.31 318.1C625.05 318.026 622.61 317.503 620.99 316.53C617.603 314.503 615.886 311.16 615.84 306.5C615.78 300.666 615.793 294.833 615.88 289C615.953 284.2 617.696 280.866 621.11 279C622.936 278 626.116 277.5 630.65 277.5C649.183 277.506 667.716 277.536 686.25 277.59C690.83 277.603 694.116 279.296 696.11 282.67C697.03 284.236 697.51 286.553 697.55 289.62C697.756 305.486 697.823 324.113 697.75 345.5C697.736 349.753 697.093 353.79 695.82 357.61C694.58 361.343 692.56 364.806 689.76 368C685.893 372.413 681.246 375.94 675.82 378.58C670.56 381.133 665.116 383.086 659.49 384.44C654.43 385.653 648.743 386.53 642.43 387.07C631.59 387.99 620.796 387.293 610.05 384.98C599.216 382.646 589.323 378.45 580.37 372.39C574.763 368.59 569.786 364.186 565.44 359.18Z" fill="black"/>
<path d="M43.3097 257.56L43.2497 277.09C43.2497 277.265 43.3192 277.433 43.443 277.557C43.5668 277.68 43.7347 277.75 43.9097 277.75C63.3031 277.75 82.6664 277.75 102 277.75C106.4 277.75 109.507 279.44 111.32 282.82C112.273 284.593 112.75 287.46 112.75 291.42C112.75 295.373 112.75 299.327 112.75 303.28C112.75 307.793 112.36 310.88 111.58 312.54C110.507 314.807 108.75 316.423 106.31 317.39C104.884 317.957 102.634 318.25 99.56 318.27C81.1264 318.35 62.5397 318.407 43.7997 318.44C43.6538 318.44 43.5139 318.498 43.4108 318.601C43.3077 318.704 43.2497 318.844 43.2497 318.99V343.08C43.2497 343.258 43.3204 343.428 43.446 343.554C43.5717 343.679 43.742 343.75 43.9197 343.75C67.293 343.743 90.4164 343.837 113.29 344.03C116.417 344.057 118.77 344.493 120.35 345.34C122.83 346.667 124.424 348.66 125.13 351.32C125.376 352.253 125.5 355.553 125.5 361.22C125.5 363.507 125.5 365.79 125.5 368.07C125.5 372.617 125.5 374.903 125.5 374.93C125.1 378.717 123.3 381.45 120.1 383.13C118.36 384.043 115.71 384.5 112.15 384.5C81.863 384.5 51.5764 384.5 21.2897 384.5C15.1364 384.5 11.6197 384.39 10.7397 384.17C7.79304 383.43 5.56305 381.68 4.04972 378.92C3.18305 377.347 2.74305 375.15 2.72972 372.33C2.41638 324.83 2.41305 277.33 2.71971 229.83C2.74638 225.93 3.24304 223.137 4.20971 221.45C5.37638 219.417 7.08971 217.957 9.3497 217.07C10.7364 216.523 12.8764 216.25 15.7697 216.25C47.4764 216.25 79.1797 216.25 110.88 216.25C115.346 216.25 118.51 216.743 120.37 217.73C123.163 219.21 124.83 221.593 125.37 224.88C125.456 225.407 125.5 228.153 125.5 233.12C125.5 236.253 125.5 239.39 125.5 242.53C125.5 246.923 125.053 249.997 124.16 251.75C122.467 255.07 119.414 256.737 115 256.75C91.2664 256.83 67.5331 256.933 43.7997 257.06C43.6698 257.06 43.5451 257.113 43.4532 257.206C43.3613 257.3 43.3097 257.427 43.3097 257.56Z" fill="black"/>
<path d="M153.2 383.82C150.62 382.8 148.727 381.193 147.52 379C146.72 377.547 146.31 375.257 146.29 372.13C146.03 326.637 146.007 281.14 146.22 235.64C146.253 228.827 146.477 224.757 146.89 223.43C148.397 218.643 152.433 216.25 159 216.25C257.253 216.25 355.503 216.253 453.75 216.26C459.69 216.26 465.567 216.743 471.38 217.71C477.36 218.697 483.02 220.23 488.36 222.31C512.813 231.817 528.027 250.047 534 277C535.067 281.82 535.67 287.59 535.81 294.31C535.95 300.863 535.867 306.653 535.56 311.68C535.113 319.08 533.927 325.687 532 331.5C522.7 359.613 503.453 376.627 474.26 382.54C467.74 383.853 461.153 384.51 454.5 384.51C355.167 384.503 255.93 384.5 156.79 384.5C155.55 384.5 154.353 384.273 153.2 383.82ZM486.27 264.23C477.277 256.577 467.103 252.75 455.75 252.75C363.75 252.75 271.75 252.75 179.75 252.75C179.684 252.75 179.619 252.763 179.559 252.788C179.498 252.813 179.443 252.85 179.396 252.896C179.35 252.943 179.313 252.998 179.288 253.059C179.263 253.119 179.25 253.184 179.25 253.25V348.44C179.25 348.655 179.335 348.861 179.487 349.013C179.639 349.165 179.845 349.25 180.06 349.25C266.44 349.25 352.42 349.31 438 349.43C447.52 349.437 454.27 349.293 458.25 349C470.79 348.067 481.27 343.297 489.69 334.69C496.643 327.577 500.973 319.247 502.68 309.7C503.867 303.013 503.7 296.4 502.18 289.86C499.847 279.813 494.543 271.27 486.27 264.23Z" fill="black"/>
<path d="M755.06 343.69C785.287 343.723 815.51 343.84 845.73 344.04C848.89 344.06 851.273 344.507 852.88 345.38C855.393 346.747 856.993 348.787 857.68 351.5C857.893 352.333 858 355.677 858 361.53C858 363.85 858 366.173 858 368.5C858 372.587 857.96 374.913 857.88 375.48C857.353 379.2 855.487 381.803 852.28 383.29C850.533 384.097 847.623 384.5 843.55 384.5C805.297 384.5 767.04 384.5 728.78 384.5C724.333 384.5 721.227 384.027 719.46 383.08C717.253 381.893 715.697 380.07 714.79 377.61C714.263 376.176 714 373.903 714 370.79C714 323.277 714 275.763 714 228.25C714 222.17 716.75 218.253 722.25 216.5C723.257 216.18 725.84 216.027 730 216.04C760.613 216.173 791.23 216.243 821.85 216.25C826.697 216.25 830.043 216.757 831.89 217.77C835.337 219.65 837.05 223.06 837.03 228C837.01 234 837 240 837 246C837 250.38 835.273 253.51 831.82 255.39C830.167 256.297 827.707 256.757 824.44 256.77C801.373 256.87 778.31 256.947 755.25 257C755.117 257 754.99 257.053 754.896 257.146C754.803 257.24 754.75 257.367 754.75 257.5V277.19C754.75 277.338 754.809 277.481 754.914 277.586C755.019 277.691 755.161 277.75 755.31 277.75C774.437 277.75 793.5 277.727 812.5 277.68C817.027 277.667 820.31 279.253 822.35 282.44C823.45 284.16 824.06 286.82 824.18 290.42C824.347 295.533 824.343 300.647 824.17 305.76C824.057 309.193 823.463 311.733 822.39 313.38C820.283 316.607 816.82 318.23 812 318.25C793.087 318.337 774.17 318.42 755.25 318.5C755.12 318.5 754.995 318.551 754.904 318.643C754.812 318.735 754.76 318.86 754.76 318.99L754.58 343.18C754.579 343.246 754.59 343.313 754.614 343.374C754.637 343.436 754.672 343.493 754.717 343.54C754.762 343.588 754.815 343.625 754.874 343.651C754.933 343.677 754.996 343.69 755.06 343.69Z" fill="black"/>
<path d="M815.94 506.31C810.84 502.35 808.27 496.914 808.23 490C808.097 469.954 808.103 456.454 808.25 449.5C808.483 438.094 813.733 430.844 824 427.75C828.72 426.324 833.607 426.13 838.66 427.17C843.547 428.177 847.437 430.043 850.33 432.769C853.61 435.863 855.687 439.92 856.56 444.94C857.18 448.487 857.473 451.674 857.44 454.5C857.353 461.667 857.297 468.834 857.27 476C857.23 486.887 856.893 493.524 856.26 495.91C853.72 505.504 846.403 510.73 834.31 511.59C827.243 512.097 821.12 510.337 815.94 506.31ZM820.44 501.56C825.9 505.693 832.25 506.666 839.49 504.48C846.997 502.206 850.75 497.296 850.75 489.75C850.75 477.17 850.83 464.586 850.99 452C851.157 439.32 844.89 432.967 832.19 432.94C824.437 432.92 819.183 435.916 816.43 441.93C815.483 443.997 814.977 446.957 814.91 450.81C814.723 461.57 814.657 472.334 814.71 483.1C814.743 488.72 814.847 491.984 815.02 492.89C815.707 496.456 817.513 499.346 820.44 501.56Z" fill="black"/>
<path d="M9.77 506.22C5.66329 502.426 3.47996 497.686 3.21996 492C2.93996 485.973 2.87329 479.943 3.01996 473.91C3.09996 470.476 3.11663 466.2 3.06996 461.08C3.02996 457.353 3.08996 453.076 3.24996 448.25C3.45663 441.823 5.54996 436.773 9.53 433.1C12.9966 429.9 17.6666 428.023 23.54 427.47C29.3133 426.93 35.0133 427.863 40.64 430.27C41.92 430.816 42.1166 431.993 41.23 433.8C40.6566 434.98 39.75 435.346 38.51 434.9C33.7233 433.166 28.76 432.726 23.62 433.58C19.62 434.24 16.49 435.613 14.23 437.7C11.4566 440.253 9.9633 443.603 9.75 447.75C9.3966 454.496 9.37 467.436 9.67 486.57C9.7366 491.083 10.1433 494.323 10.89 496.29C12.23 499.816 14.5533 502.353 17.86 503.9C20.84 505.286 24.84 505.78 29.86 505.38C33.98 505.053 37.9966 504.216 41.91 502.87C42.3019 502.735 42.7294 502.748 43.111 502.907C43.4927 503.065 43.8019 503.358 43.98 503.73C44.9133 505.663 45.01 507.03 44.27 507.83C44.0166 508.103 43.01 508.523 41.25 509.09C33.7966 511.496 26.4 512.113 19.06 510.94C15.6933 510.4 12.5966 508.826 9.77 506.22Z" fill="black"/>
<path d="M510.48 460.26C507.3 457.36 505.447 453.953 504.92 450.04C504.433 446.473 505.077 442.88 506.85 439.26C509.203 434.44 513.003 431.186 518.25 429.5C527.37 426.566 536.45 426.656 545.49 429.77C547.997 430.636 548.333 432.476 546.5 435.29C546.256 435.664 545.892 435.945 545.469 436.087C545.046 436.228 544.588 436.222 544.17 436.07C539.15 434.223 534.093 433.45 529 433.75C525.247 433.97 521.927 434.816 519.04 436.29C516.433 437.623 514.477 439.366 513.17 441.52C511.657 444.026 511.2 446.763 511.8 449.73C512.24 451.943 513.303 453.87 514.99 455.51C516.57 457.05 518.47 458.316 520.69 459.31C525.057 461.27 528.82 462.77 531.98 463.81C535.893 465.103 539.737 466.576 543.51 468.23C547.09 469.803 550.247 471.983 552.98 474.77C556.087 477.95 557.81 481.773 558.15 486.24C558.663 493 557.033 498.586 553.26 503C549.98 506.826 545.277 509.413 539.15 510.76C532.797 512.153 526.32 511.876 519.72 509.93C511.673 507.556 506.11 501.966 503.03 493.16C502.337 491.173 503.027 490.006 505.1 489.66C505.8 489.546 506.957 489.613 508.57 489.86C508.716 489.88 508.852 489.944 508.964 490.043C509.076 490.143 509.158 490.273 509.2 490.42C511.6 498.593 516.97 503.433 525.31 504.94C530.07 505.8 534.987 505.42 540.06 503.8C544.26 502.466 547.3 500.086 549.18 496.66C551 493.353 551.57 489.81 550.89 486.03C550.097 481.623 547.49 478.173 543.07 475.68C539.537 473.686 535.847 472.04 532 470.74C530.1 470.093 526.247 468.616 520.44 466.31C516.507 464.75 513.187 462.733 510.48 460.26Z" fill="black"/>
<path d="M707.16 510.14C705.553 510.006 704.75 509.136 704.75 507.53V430.49C704.75 429.23 705.377 428.563 706.63 428.49C711.083 428.243 715.553 428.163 720.04 428.25C726.427 428.37 730.89 428.65 733.43 429.09C746.377 431.33 753.17 439.883 753.81 454.75C754.29 465.823 754.227 476.89 753.62 487.95C753.34 492.97 752.59 496.726 751.37 499.22C749.45 503.12 746.52 506 742.58 507.86C740.033 509.06 736.18 509.843 731.02 510.21C722.867 510.796 714.913 510.773 707.16 510.14ZM713.23 504.35C717.717 504.543 722.473 504.656 727.5 504.69C732.233 504.716 736.297 503.883 739.69 502.19C744.49 499.783 746.93 495.636 747.01 489.75C747.17 478.17 747.297 466.587 747.39 455C747.47 445.374 743.697 439.047 736.07 436.02C733.397 434.953 729.617 434.363 724.73 434.25C720.777 434.15 716.923 434.22 713.17 434.46C711.89 434.54 711.25 435.224 711.25 436.51V502.28C711.25 503.6 711.91 504.29 713.23 504.35Z" fill="black"/>
<path d="M65.3996 510.15C65.0643 510.008 64.7779 509.77 64.5754 509.466C64.3728 509.163 64.2631 508.806 64.2596 508.44C63.9196 482.06 63.913 456.107 64.2396 430.58C64.2596 429.193 64.963 428.5 66.3496 428.5C75.203 428.5 83.9196 428.5 92.4996 428.5C101.266 428.5 107.493 431.657 111.18 437.97C113.42 441.803 114.627 446.823 114.8 453.03C114.947 458.303 114.29 463.527 112.83 468.7C111.723 472.64 109.463 475.91 106.05 478.51C105.136 479.203 104.863 480.093 105.23 481.18L114.09 507.77C114.237 508.212 114.213 508.692 114.024 509.116C113.836 509.54 113.495 509.877 113.07 510.06C111.543 510.72 110.103 510.683 108.75 509.95C108.474 509.802 108.256 509.538 108.14 509.21L98.6796 482.55C98.604 482.336 98.4648 482.151 98.2807 482.018C98.0966 481.886 97.8763 481.813 97.6496 481.81C89.8629 481.737 81.9796 481.717 73.9996 481.75C71.6063 481.757 70.4929 482.793 70.6596 484.86C70.7263 485.64 70.7596 486.07 70.7596 486.15C70.8729 493.583 70.773 501.01 70.4596 508.43C70.447 508.777 70.3216 509.088 70.1096 509.3C68.7829 510.653 67.2129 510.937 65.3996 510.15ZM71.21 474.43C71.9833 475.05 72.6633 475.357 73.25 475.35C79.75 475.283 86.2467 475.33 92.74 475.49C97.4667 475.61 101.117 474.343 103.69 471.69C105.63 469.683 106.917 467.107 107.55 463.96C107.957 461.947 108.217 459.14 108.33 455.54C108.457 451.76 108.077 448.267 107.19 445.06C105.363 438.48 100.883 435.113 93.75 434.96C87.55 434.833 81.3533 434.763 75.16 434.75C73.48 434.75 72.5433 434.777 72.35 434.83C71.2833 435.15 70.75 436.123 70.75 437.75C70.75 449.75 70.75 461.657 70.75 473.47C70.7499 473.654 70.7912 473.836 70.8708 474.002C70.9504 474.168 71.0663 474.315 71.21 474.43Z" fill="black"/>
<path d="M143.71 469.3C143.397 470.933 143.237 472.583 143.23 474.25C143.21 483.643 143.24 493.12 143.32 502.68C143.323 503.165 143.521 503.629 143.871 503.971C144.221 504.314 144.695 504.507 145.19 504.51L174.49 504.73C174.647 504.733 174.798 504.776 174.929 504.856C175.059 504.935 175.164 505.047 175.23 505.18C175.99 506.707 176.053 508.13 175.42 509.45C175.271 509.764 175.036 510.029 174.742 510.215C174.448 510.401 174.108 510.5 173.76 510.5H138.69C138.467 510.5 138.246 510.456 138.039 510.371C137.833 510.286 137.646 510.162 137.488 510.005C137.33 509.848 137.205 509.662 137.119 509.457C137.034 509.252 136.99 509.032 136.99 508.81L136.75 430.39C136.75 430.15 136.797 429.912 136.889 429.69C136.981 429.468 137.116 429.266 137.286 429.096C137.456 428.926 137.658 428.791 137.88 428.699C138.102 428.607 138.34 428.56 138.58 428.56L174.29 428.5C174.538 428.5 174.781 428.577 174.983 428.723C175.186 428.868 175.339 429.073 175.42 429.31C176.133 431.377 176.08 432.963 175.26 434.07C175.173 434.185 175.054 434.278 174.912 434.342C174.769 434.407 174.608 434.44 174.44 434.44L145.38 434.5C144.16 434.5 143.52 435.107 143.46 436.32C143.08 444.36 143.09 452.603 143.49 461.05C143.503 461.306 143.614 461.548 143.8 461.725C143.986 461.902 144.233 462 144.49 462H163.67C164.047 462.001 164.415 462.108 164.732 462.31C165.05 462.512 165.302 462.8 165.46 463.14C166.14 464.62 166.17 466.033 165.55 467.38C165.392 467.729 165.13 468.026 164.795 468.235C164.46 468.444 164.066 468.557 163.66 468.56L144.31 468.78C144.168 468.783 144.03 468.836 143.921 468.931C143.812 469.025 143.737 469.156 143.71 469.3Z" fill="black"/>
<path d="M190.32 510.279C190.097 510.218 189.888 510.112 189.707 509.967C189.526 509.823 189.376 509.644 189.266 509.441C189.156 509.237 189.088 509.013 189.066 508.783C189.044 508.552 189.07 508.32 189.14 508.099L214.28 429.669C214.33 429.512 214.411 429.367 214.516 429.245C214.621 429.123 214.748 429.026 214.89 428.959C216.783 428.099 218.65 428.136 220.49 429.069C220.629 429.139 220.754 429.239 220.857 429.362C220.96 429.486 221.039 429.631 221.09 429.789L246.61 508.079C246.673 508.278 246.697 508.487 246.68 508.694C246.663 508.902 246.604 509.104 246.509 509.289C246.413 509.474 246.282 509.638 246.122 509.772C245.963 509.906 245.778 510.007 245.58 510.069C243.066 510.863 241.306 510.626 240.3 509.359C240.086 509.093 239.563 507.696 238.73 505.169C236.35 497.936 233.936 490.529 231.49 482.949C231.376 482.6 231.155 482.296 230.858 482.08C230.562 481.865 230.205 481.749 229.84 481.749H205.49C205.199 481.75 204.917 481.841 204.683 482.01C204.45 482.179 204.277 482.417 204.19 482.689L195.59 509.199C195.539 509.361 195.461 509.508 195.359 509.634C195.258 509.759 195.136 509.86 195 509.929C193.566 510.636 192.006 510.753 190.32 510.279ZM207.89 474.95C208.156 475.146 208.478 475.251 208.81 475.25H226.49C228.363 475.25 229.013 474.36 228.44 472.58C225.433 463.24 222.43 453.903 219.43 444.57C219.223 443.923 218.977 443.46 218.69 443.18C218.177 442.68 217.613 442.573 217 442.86C216.506 443.087 216.136 443.6 215.89 444.4C212.943 453.734 209.973 463.057 206.98 472.37C206.64 473.424 206.943 474.284 207.89 474.95Z" fill="black"/>
<path d="M270.93 434.31L252.9 434.25C252.612 434.25 252.335 434.141 252.129 433.947C251.924 433.752 251.805 433.488 251.8 433.21L251.75 429.59C251.748 429.457 251.773 429.324 251.824 429.2C251.876 429.076 251.953 428.962 252.05 428.867C252.147 428.771 252.264 428.695 252.393 428.642C252.521 428.589 252.66 428.561 252.8 428.56L296.87 428.5C297.274 428.501 297.664 428.644 297.973 428.903C298.282 429.163 298.49 429.523 298.56 429.92C298.993 432.393 298.56 433.827 297.26 434.22C297.194 434.24 296.02 434.247 293.74 434.24C288.76 434.22 283.783 434.243 278.81 434.31C278.745 434.31 278.678 434.323 278.618 434.348C278.557 434.373 278.503 434.41 278.457 434.456C278.41 434.503 278.373 434.558 278.348 434.619C278.323 434.679 278.31 434.744 278.31 434.81L278 509.75C278.001 509.905 277.948 510.053 277.855 510.164C277.761 510.274 277.634 510.337 277.5 510.34L272.45 510.42C272.334 510.421 272.218 510.397 272.111 510.349C272.003 510.301 271.904 510.23 271.821 510.139C271.739 510.049 271.673 509.942 271.628 509.824C271.583 509.705 271.56 509.578 271.56 509.45L271.44 434.81C271.44 434.677 271.385 434.55 271.29 434.456C271.194 434.363 271.065 434.31 270.93 434.31Z" fill="black"/>
<path d="M321.907 428.514L318.107 428.527C317.306 428.53 316.659 429.181 316.662 429.982L316.938 508.962C316.941 509.763 317.592 510.409 318.393 510.407L322.193 510.393C322.994 510.391 323.641 509.739 323.638 508.938L323.362 429.959C323.359 429.158 322.708 428.511 321.907 428.514Z" fill="black"/>
<path d="M367.33 498.78C367.97 501.02 368.606 501.016 369.24 498.769L388.76 430.2C388.867 429.818 389.083 429.475 389.383 429.211C389.682 428.947 390.053 428.772 390.45 428.709C393.796 428.169 395.466 428.793 395.46 430.579C395.46 430.793 395.126 432.067 394.46 434.4C387.413 459.18 380.3 484.02 373.12 508.92C373.033 509.221 372.864 509.492 372.633 509.702C372.401 509.912 372.116 510.053 371.81 510.109C369.036 510.603 366.8 510.68 365.1 510.34C364.661 510.257 364.253 510.05 363.923 509.747C363.593 509.443 363.353 509.054 363.23 508.62C355.883 483.08 348.696 458 341.67 433.38C341.656 433.327 341.466 432.789 341.1 431.769C340.18 429.196 341.706 428.157 345.68 428.65C346.813 428.79 347.54 429.417 347.86 430.53L367.33 498.78Z" fill="black"/>
<path d="M413.96 510.17C413.603 510.024 413.296 509.777 413.081 509.458C412.865 509.139 412.75 508.764 412.75 508.38V430.8C412.75 429.306 413.493 428.56 414.98 428.56H450.43C450.599 428.56 450.762 428.596 450.905 428.666C451.048 428.736 451.167 428.837 451.25 428.96C452.017 430.073 452.11 431.586 451.53 433.5C451.44 433.789 451.261 434.043 451.018 434.223C450.775 434.403 450.481 434.5 450.18 434.5H420.76C420.422 434.499 420.098 434.629 419.858 434.859C419.619 435.09 419.483 435.402 419.48 435.73L419.29 460.38C419.287 460.793 419.452 461.191 419.749 461.486C420.045 461.78 420.448 461.947 420.87 461.95C426.703 461.983 432.89 462.056 439.43 462.17C441.35 462.203 442.037 463.7 441.49 466.66C441.263 467.866 440.52 468.476 439.26 468.49L421.04 468.65C420.57 468.655 420.12 468.846 419.791 469.182C419.461 469.517 419.277 469.969 419.28 470.44L419.5 503.85C419.5 504.022 419.571 504.187 419.696 504.309C419.822 504.431 419.992 504.5 420.17 504.5C428.81 504.5 437.423 504.5 446.01 504.5C446.023 504.5 446.69 504.473 448.01 504.42C451.543 504.273 452.683 505.89 451.43 509.27C451.299 509.631 451.059 509.942 450.744 510.162C450.429 510.382 450.054 510.5 449.67 510.5C438.477 510.5 427.67 510.573 417.25 510.72C416.01 510.74 414.913 510.556 413.96 510.17Z" fill="black"/>
<path d="M594.81 434.81L594.75 509.94C594.75 510.089 594.691 510.231 594.586 510.336C594.481 510.441 594.338 510.5 594.19 510.5H588.94C588.849 510.5 588.759 510.482 588.676 510.448C588.592 510.413 588.516 510.362 588.452 510.298C588.388 510.234 588.337 510.158 588.302 510.074C588.267 509.991 588.25 509.901 588.25 509.81V434.91C588.25 434.735 588.179 434.567 588.053 434.444C587.928 434.32 587.757 434.25 587.58 434.25L569.56 434.19C569.404 434.19 569.253 434.151 569.12 434.078C568.987 434.004 568.876 433.898 568.8 433.77C567.813 432.084 567.88 430.477 569 428.95C569.089 428.829 569.21 428.731 569.353 428.663C569.495 428.595 569.655 428.56 569.82 428.56C592.666 428.447 607.31 428.427 613.75 428.5C614.95 428.514 615.51 429.104 615.43 430.27C615.396 430.73 615.373 431.387 615.36 432.24C615.346 432.78 615.213 433.287 614.96 433.76C614.891 433.89 614.781 433.999 614.644 434.074C614.507 434.15 614.346 434.19 614.18 434.19L595.3 434.31C595.17 434.31 595.045 434.363 594.953 434.457C594.861 434.55 594.81 434.678 594.81 434.81Z" fill="black"/>
<path d="M638.94 506.06C635.847 503.78 633.667 500.826 632.4 497.2C631.647 495.06 631.24 491.543 631.18 486.65C630.947 469.016 630.887 451.383 631 433.75C631.013 431.836 631.153 430.353 631.42 429.3C631.457 429.148 631.534 429.01 631.643 428.899C631.752 428.788 631.889 428.709 632.04 428.67C633.713 428.23 635.357 428.3 636.97 428.88C637.107 428.929 637.226 429.021 637.31 429.143C637.394 429.264 637.44 429.41 637.44 429.56C637.413 448.96 637.503 468.36 637.71 487.76C637.743 491.226 638.117 493.84 638.83 495.6C639.95 498.34 641.693 500.453 644.06 501.94C650.88 506.22 657.59 506.636 664.19 503.19C668.11 501.136 670.85 498.07 672.41 493.99C673.303 491.643 673.75 487.76 673.75 482.34C673.75 465.82 673.75 449.296 673.75 432.77C673.75 432.676 673.72 432.166 673.66 431.24C673.533 429.3 674.367 428.336 676.16 428.35C677.66 428.356 678.553 428.376 678.84 428.41C679.98 428.523 680.493 429.266 680.38 430.64C680.293 431.706 680.25 432.286 680.25 432.38C680.31 451.086 680.31 469.793 680.25 488.5C680.23 495.18 678.217 500.54 674.21 504.58C671.757 507.053 668.647 508.823 664.88 509.89C661.5 510.843 657.853 511.233 653.94 511.06C648.12 510.806 643.12 509.14 638.94 506.06Z" fill="black"/>
<path d="M783.349 428.52H780.669C779.62 428.52 778.77 429.37 778.77 430.419V508.56C778.77 509.609 779.62 510.46 780.669 510.46H783.349C784.399 510.46 785.25 509.609 785.25 508.56V430.419C785.25 429.37 784.399 428.52 783.349 428.52Z" fill="black"/>
<path d="M248.538 535.055L243.459 534.975C243.205 534.971 242.996 535.173 242.992 535.427L241.829 609.478C241.825 609.732 242.027 609.941 242.281 609.945L247.361 610.025C247.615 610.029 247.824 609.827 247.828 609.573L248.991 535.522C248.995 535.268 248.792 535.059 248.538 535.055Z" fill="black"/>
<path d="M451.398 535.063L446.559 534.986C446.233 534.981 445.966 535.242 445.96 535.567L444.801 609.358C444.796 609.684 445.055 609.952 445.381 609.958L450.22 610.034C450.546 610.039 450.814 609.779 450.82 609.453L451.979 535.662C451.984 535.336 451.724 535.068 451.398 535.063Z" fill="black"/>
<path d="M738.75 547.57C740.915 547.57 742.67 545.814 742.67 543.65C742.67 541.485 740.915 539.729 738.75 539.729C736.585 539.729 734.83 541.485 734.83 543.65C734.83 545.814 736.585 547.57 738.75 547.57Z" fill="black"/>
<path d="M749.93 547.58C752.095 547.58 753.85 545.825 753.85 543.66C753.85 541.495 752.095 539.74 749.93 539.74C747.765 539.74 746.01 541.495 746.01 543.66C746.01 545.825 747.765 547.58 749.93 547.58Z" fill="black"/>
<path d="M677.19 609.56C671.877 609.494 666.563 609.474 661.25 609.5C656.83 609.527 652.763 607.757 649.05 604.19C644.217 599.557 641.95 593.824 642.25 586.99C642.417 583.25 642.503 579.504 642.51 575.75C642.517 573.017 643.033 570.454 644.06 568.06C645.027 565.827 646.527 563.757 648.56 561.85C652.193 558.437 656.423 556.487 661.25 556C667.437 555.374 673 556.977 677.94 560.81C679.067 561.69 679.867 562.717 680.34 563.89C680.92 565.337 681.223 566.09 681.25 566.15C682.75 569.184 683.5 571.884 683.5 574.25C683.5 583.75 683.5 593.364 683.5 603.09C683.5 603.265 683.569 603.433 683.693 603.557C683.817 603.681 683.985 603.75 684.16 603.75C703.053 603.75 721.833 603.75 740.5 603.75C744.707 603.75 747.04 601.584 747.5 597.25C748.047 592.09 748.073 581.364 747.58 565.07C747.567 564.776 747.689 564.463 747.92 564.2C748.7 563.3 748.893 562.15 748.5 560.75C747.833 558.404 748.677 557.41 751.03 557.77C751.85 557.897 752.677 557.97 753.51 557.99C753.654 557.996 753.793 558.046 753.904 558.135C754.016 558.223 754.095 558.344 754.13 558.48C754.497 559.927 754.497 561.327 754.13 562.68C753.67 564.374 753.443 565.587 753.45 566.32C753.503 575.72 753.523 585.124 753.51 594.53C753.503 597.07 753.74 598.847 754.22 599.86C754.813 601.107 755.73 602.074 756.97 602.76C757.837 603.247 759.077 603.514 760.69 603.56C771.57 603.887 782.45 603.894 793.33 603.58C795.423 603.514 796.96 603.15 797.94 602.49C798.913 601.824 799.66 600.944 800.18 599.85C800.56 599.057 800.75 597.96 800.75 596.56C800.75 586.52 800.75 576.307 800.75 565.92C800.75 565.743 800.821 565.572 800.946 565.446C801.072 565.321 801.242 565.25 801.42 565.25H806.09C806.265 565.25 806.433 565.32 806.557 565.444C806.68 565.567 806.75 565.735 806.75 565.91C806.75 575.97 806.673 586 806.52 596C806.46 600.027 808.393 602.404 812.32 603.13C815.393 603.697 818.433 603.577 821.44 602.77C825.207 601.757 827.037 599.25 826.93 595.25C826.67 585.437 826.707 575.624 827.04 565.81C827.045 565.671 827.102 565.538 827.199 565.442C827.296 565.345 827.425 565.29 827.56 565.29L832.24 565.27C832.306 565.269 832.372 565.281 832.434 565.307C832.496 565.332 832.552 565.371 832.6 565.419C832.647 565.467 832.685 565.525 832.711 565.589C832.737 565.653 832.75 565.721 832.75 565.79C832.75 573.997 832.75 582.15 832.75 590.25C832.75 595.124 832.763 597.62 832.79 597.74C833.39 600.727 835.547 602.544 839.26 603.19C848.907 604.864 853.57 600.8 853.25 591C852.99 582.987 853.17 571.507 853.79 556.56C853.796 556.41 853.848 556.266 853.938 556.149C854.027 556.032 854.151 555.949 854.29 555.91C855.19 555.677 856.1 555.664 857.02 555.87C857.327 555.944 857.65 555.954 857.99 555.9C859.217 555.707 859.76 556.197 859.62 557.37C859.527 558.157 859.48 558.58 859.48 558.64C859.187 568.634 859.027 578.627 859 588.62C858.987 594.16 858.547 598.027 857.68 600.22C856.007 604.46 852.913 607.264 848.4 608.63C845.32 609.57 842.2 609.727 839.04 609.1C835.987 608.487 833.03 607.204 830.17 605.25C830.047 605.166 829.9 605.122 829.75 605.123C829.6 605.125 829.453 605.173 829.33 605.26C825.763 607.834 821.903 609.164 817.75 609.25C812.27 609.364 807.733 608.05 804.14 605.31C804.03 605.226 803.895 605.183 803.76 605.189C803.624 605.194 803.496 605.248 803.4 605.34C800.48 608.114 796.513 609.5 791.5 609.5C780.667 609.5 769.833 609.5 759 609.5C756.193 609.5 753.477 608.204 750.85 605.61C750.757 605.517 750.631 605.464 750.498 605.464C750.365 605.464 750.236 605.517 750.14 605.61C747.467 608.204 744.337 609.5 740.75 609.5C722.25 609.5 703.427 609.5 684.28 609.5C684.175 609.5 684.071 609.521 683.975 609.563C683.878 609.605 683.792 609.667 683.72 609.744C683.649 609.821 683.594 609.912 683.56 610.011C683.525 610.11 683.512 610.216 683.52 610.32C683.78 613.767 683.337 617.224 682.19 620.69C681.357 623.19 679.75 625.224 677.37 626.79C675.663 627.91 673.317 628.774 670.33 629.38C664.45 630.58 658.267 630.837 651.78 630.15C651.635 630.133 651.501 630.064 651.405 629.957C651.309 629.849 651.257 629.712 651.26 629.57L651.29 625.06C651.29 624.995 651.303 624.93 651.33 624.87C651.356 624.81 651.394 624.756 651.443 624.71C651.491 624.664 651.549 624.629 651.612 624.605C651.675 624.581 651.742 624.569 651.81 624.57C654.457 624.597 657.103 624.637 659.75 624.69C664.117 624.784 668.033 624.304 671.5 623.25C672.767 622.864 673.907 622.174 674.92 621.18C675.787 620.334 676.44 619.227 676.88 617.86C677.7 615.347 677.987 612.747 677.74 610.06C677.725 609.922 677.661 609.795 677.559 609.703C677.458 609.61 677.326 609.56 677.19 609.56ZM653.44 600.3C656.113 602.6 659.55 603.75 663.75 603.75C668.163 603.75 672.643 603.75 677.19 603.75C677.338 603.75 677.481 603.691 677.586 603.586C677.691 603.481 677.75 603.339 677.75 603.19C677.75 596.297 677.75 589.557 677.75 582.97C677.75 577.484 677.743 574.674 677.73 574.54C677.383 571.52 676.29 568.844 674.45 566.51C672.557 564.11 670.013 562.59 666.82 561.95C662.52 561.097 658.497 561.78 654.75 564C650.943 566.26 648.86 569.51 648.5 573.75C648.193 577.377 648.073 582.377 648.14 588.75C648.193 593.45 649.96 597.3 653.44 600.3Z" fill="black"/>
<path d="M301.56 603.689C340.373 603.763 379.186 603.783 418 603.749C420.687 603.749 422.86 603.694 424.52 603.58C425.867 603.494 426.847 603.083 427.46 602.349C428.193 601.456 428.553 600.339 428.54 598.999C428.427 587.333 428.437 575.666 428.57 563.999C428.59 562.299 428.89 560.356 429.47 558.169C429.501 558.049 429.571 557.943 429.668 557.867C429.766 557.791 429.886 557.75 430.01 557.749H434.01C434.114 557.749 434.216 557.771 434.312 557.812C434.407 557.852 434.493 557.912 434.565 557.986C434.637 558.061 434.693 558.148 434.73 558.245C434.767 558.342 434.784 558.446 434.78 558.549C434.32 571.929 434.193 584.996 434.4 597.749C434.5 603.809 432.306 607.529 427.82 608.909C426.54 609.303 422.803 609.499 416.61 609.499C364.23 609.499 311.74 609.499 259.14 609.499C258.976 609.499 258.818 609.436 258.702 609.322C258.585 609.207 258.52 609.052 258.52 608.89L258.54 604.32C258.54 604.187 258.593 604.059 258.689 603.963C258.784 603.868 258.914 603.812 259.05 603.809L294.56 603.57C294.695 603.57 294.824 603.517 294.921 603.422C295.018 603.327 295.075 603.196 295.08 603.059C295.333 595.473 295.367 587.883 295.18 580.289C295.06 575.429 294.433 571.826 293.3 569.479C290.66 564.006 285.836 561.389 278.83 561.629C276.443 561.709 275.22 561.749 275.16 561.749C273.227 561.749 271.227 561.749 269.16 561.749C269.074 561.749 268.988 561.734 268.909 561.701C268.829 561.669 268.757 561.622 268.697 561.562C268.636 561.503 268.589 561.432 268.557 561.354C268.525 561.277 268.509 561.193 268.51 561.109L268.54 556.559C268.54 556.426 268.595 556.299 268.692 556.203C268.789 556.108 268.921 556.052 269.06 556.049C271.386 555.996 273.713 555.976 276.04 555.989C276.093 555.989 277.23 555.973 279.45 555.939C289.37 555.779 295.883 559.653 298.99 567.559C300.15 570.506 300.793 575.376 300.92 582.169C301.047 589.169 301.097 596.173 301.07 603.179C301.069 603.246 301.08 603.312 301.104 603.374C301.128 603.436 301.164 603.493 301.21 603.54C301.256 603.588 301.31 603.625 301.37 603.65C301.43 603.676 301.495 603.689 301.56 603.689Z" fill="black"/>
<path d="M489.52 605.21C483.907 600.643 481.25 594.653 481.55 587.239C481.684 583.826 481.73 580.413 481.69 576.999C481.664 574.526 481.99 572.129 482.67 569.809C483.33 567.569 484.5 565.506 486.18 563.619C492.9 556.086 501.487 554.066 511.94 557.559C515.52 558.759 518.19 561.173 519.95 564.799C522.31 569.666 523.244 574.816 522.75 580.249C522.517 582.843 522.574 590.443 522.92 603.049C522.925 603.187 522.981 603.319 523.076 603.416C523.17 603.512 523.297 603.568 523.43 603.57C539.457 603.784 555.48 603.859 571.5 603.799C574.307 603.786 575.947 602.703 576.42 600.549C576.487 600.256 576.503 598.557 576.47 595.45C576.35 583.13 576.6 570.817 577.22 558.51C577.228 558.35 577.287 558.197 577.386 558.085C577.484 557.974 577.615 557.911 577.75 557.909L582.56 557.859C582.626 557.859 582.691 557.874 582.751 557.903C582.811 557.932 582.865 557.975 582.91 558.03C582.955 558.084 582.99 558.149 583.012 558.219C583.035 558.289 583.044 558.364 583.04 558.439C582.22 573.233 581.957 586.503 582.25 598.249C582.37 602.909 580.85 606.166 577.69 608.02C576.004 609.006 573.12 609.499 569.04 609.499C554.307 609.499 539.34 609.499 524.14 609.499C523.949 609.499 523.759 609.539 523.583 609.614C523.406 609.689 523.247 609.799 523.114 609.937C522.982 610.076 522.878 610.238 522.811 610.418C522.743 610.597 522.712 610.788 522.72 610.979C523.16 621.893 518.334 628.126 508.24 629.679C502.6 630.553 496.877 630.736 491.07 630.229C490.915 630.219 490.77 630.15 490.664 630.034C490.558 629.919 490.5 629.767 490.5 629.609V625.03C490.5 624.956 490.515 624.882 490.545 624.814C490.574 624.746 490.618 624.683 490.672 624.633C490.727 624.582 490.791 624.544 490.861 624.52C490.931 624.495 491.006 624.484 491.08 624.489C495.607 624.769 500.08 624.806 504.5 624.599C513.8 624.179 517.924 619.376 516.87 610.189C516.856 610.05 516.792 609.92 516.689 609.823C516.587 609.726 516.452 609.668 516.31 609.659C510.79 609.399 506.437 609.346 503.25 609.499C497.924 609.753 493.347 608.324 489.52 605.21ZM492.67 600.33C495.55 602.77 498.91 603.954 502.75 603.88C507.25 603.793 511.813 603.75 516.44 603.75C516.589 603.75 516.731 603.691 516.836 603.586C516.941 603.481 517 603.339 517 603.19C517 596.03 517 589.033 517 582.2C517 577.3 516.976 574.67 516.93 574.31C516.596 571.51 515.61 569.013 513.97 566.82C511.923 564.093 509.153 562.466 505.66 561.94C501.8 561.354 498.004 562.067 494.27 564.08C490.29 566.22 488.117 569.527 487.75 574C487.397 578.347 487.334 583.057 487.56 588.13C487.694 591.09 488.044 593.294 488.61 594.74C489.464 596.9 490.817 598.764 492.67 600.33Z" fill="black"/>
<path d="M614.43 561.969C610.29 561.789 605.92 561.72 601.32 561.76C601.168 561.76 601.023 561.701 600.917 561.598C600.81 561.495 600.75 561.356 600.75 561.21L600.79 556.57C600.792 556.433 600.848 556.302 600.945 556.205C601.042 556.108 601.172 556.052 601.31 556.049C604.21 555.983 607.106 555.916 610 555.849C623.633 555.556 631.3 562.106 633 575.499C633.346 578.239 633.436 582.129 633.27 587.169C633.11 592.123 632.42 595.913 631.2 598.539C629.073 603.099 625.653 606.286 620.94 608.099C618.506 609.033 614.816 609.499 609.87 609.499C603.67 609.499 597.476 609.499 591.29 609.499C591.188 609.499 591.087 609.481 590.993 609.442C590.898 609.404 590.813 609.347 590.742 609.276C590.67 609.205 590.613 609.122 590.575 609.03C590.537 608.938 590.518 608.839 590.52 608.739L590.54 604.309C590.54 604.177 590.593 604.049 590.689 603.956C590.785 603.862 590.914 603.809 591.05 603.809C596.683 603.756 602.316 603.733 607.95 603.739C612.976 603.739 616.61 603.276 618.85 602.349C624.783 599.876 627.64 594.759 627.42 586.999C627.346 584.393 627.296 581.783 627.27 579.169C627.236 575.789 626.876 573.226 626.19 571.479C624.963 568.373 622.963 565.816 620.19 563.809C618.623 562.676 616.703 562.063 614.43 561.969Z" fill="black"/>
<path d="M197.82 603.69C198.206 603.69 198.27 603.547 198.01 603.26C195.11 600.127 193.256 596.46 192.45 592.26C191.196 585.773 191.546 579.103 193.5 572.25C194.313 569.39 195.61 566.983 197.39 565.03C198.883 563.397 200.96 561.72 203.62 560C207.713 557.367 212.34 556.127 217.5 556.28C222.226 556.42 226.76 557.407 231.1 559.24C231.248 559.301 231.379 559.395 231.482 559.514C231.584 559.632 231.656 559.771 231.69 559.92C232.11 561.72 231.813 563.363 230.8 564.85C230.722 564.962 230.603 565.04 230.466 565.071C230.328 565.103 230.181 565.084 230.05 565.02C221.623 560.807 213.543 560.737 205.81 564.81C202.676 566.463 200.426 569.463 199.06 573.81C198.12 576.803 197.613 579.84 197.54 582.92C197.46 586.387 197.733 589.427 198.36 592.04C200.053 599.107 205.103 602.88 213.51 603.36C219.996 603.733 226.996 603.853 234.51 603.72C234.635 603.719 234.758 603.741 234.874 603.785C234.99 603.829 235.096 603.894 235.185 603.976C235.274 604.059 235.345 604.158 235.394 604.266C235.443 604.375 235.469 604.492 235.47 604.61L235.48 608.99C235.481 609.057 235.469 609.123 235.443 609.184C235.418 609.246 235.38 609.302 235.331 609.35C235.283 609.397 235.225 609.435 235.161 609.461C235.097 609.487 235.029 609.5 234.96 609.5H82.2698C82.1319 609.5 81.9996 609.445 81.9021 609.348C81.8046 609.25 81.7498 609.118 81.7498 608.98C81.7498 594.66 81.7598 580.5 81.7798 566.5C81.7798 565.367 81.9898 564.347 82.4098 563.44C82.475 563.303 82.506 563.152 82.5 563C82.4941 562.848 82.4514 562.7 82.3758 562.568C82.3001 562.437 82.1936 562.325 82.0654 562.244C81.9372 562.162 81.7912 562.113 81.6398 562.1C77.4465 561.727 73.5865 562.047 70.0598 563.06C66.9398 563.953 64.5898 565.44 63.0098 567.52C61.2231 569.867 60.3231 572.693 60.3098 576C60.2698 587.08 60.2498 598.163 60.2498 609.25C60.2498 614.05 59.2298 618.47 57.1898 622.51C55.2031 626.457 52.3431 629.783 48.6098 632.49C42.8231 636.683 36.2031 638.353 28.7498 637.5C17.3831 636.2 9.7165 630.58 5.74981 620.64C4.57647 617.7 3.88314 613.86 3.6698 609.12C3.34314 601.56 3.34314 593.997 3.6698 586.43C3.67469 586.279 3.73027 586.136 3.82512 586.03C3.91997 585.924 4.04689 585.863 4.17981 585.86L8.5898 585.83C8.67809 585.829 8.76575 585.846 8.84759 585.883C8.92943 585.919 9.0038 585.972 9.0663 586.041C9.1287 586.109 9.1781 586.19 9.2113 586.279C9.2446 586.368 9.261 586.464 9.2598 586.56C9.1665 593.72 9.1965 600.683 9.3498 607.45C9.4498 612.063 10.0131 615.687 11.0398 618.32C13.4665 624.547 17.6631 628.61 23.6298 630.51C30.3831 632.663 36.8698 632.197 43.0898 629.11C47.9898 626.677 51.3298 622.727 53.1098 617.26C54.0365 614.42 54.4998 609.527 54.4998 602.58C54.4998 593.307 54.4998 584.03 54.4998 574.75C54.4998 570.757 55.9198 567.177 58.7598 564.01C61.0865 561.41 63.7765 559.423 66.8298 558.05C69.1898 556.997 72.3898 556.413 76.4298 556.3C80.0098 556.2 83.7831 556.193 87.7498 556.28C87.8614 556.283 87.9714 556.307 88.0732 556.353C88.1749 556.399 88.2663 556.464 88.3419 556.545C88.4176 556.626 88.4758 556.722 88.5133 556.826C88.5507 556.93 88.5665 557.04 88.5598 557.15C88.4065 559.883 88.2398 562.46 88.0598 564.88C87.8531 567.667 87.7398 570.25 87.7198 572.63C87.6598 582.89 87.6065 593.123 87.5598 603.33C87.5598 603.441 87.6051 603.548 87.6858 603.627C87.7664 603.706 87.8758 603.75 87.9898 603.75L197.82 603.69Z" fill="black"/>
<path d="M424.78 623.66C426.95 623.66 428.71 621.9 428.71 619.73C428.71 617.559 426.95 615.8 424.78 615.8C422.609 615.8 420.85 617.559 420.85 619.73C420.85 621.9 422.609 623.66 424.78 623.66Z" fill="black"/>
<path d="M567.32 623.65C569.485 623.65 571.239 621.895 571.239 619.73C571.239 617.565 569.485 615.81 567.32 615.81C565.155 615.81 563.4 617.565 563.4 619.73C563.4 621.895 565.155 623.65 567.32 623.65Z" fill="black"/>
<path d="M578.5 623.67C580.676 623.67 582.44 621.906 582.44 619.73C582.44 617.554 580.676 615.79 578.5 615.79C576.324 615.79 574.56 617.554 574.56 619.73C574.56 621.906 576.324 623.67 578.5 623.67Z" fill="black"/>
<path d="M441.05 629.96C440.157 626.773 440.244 623.723 441.31 620.81C441.724 619.69 442.41 618.746 443.37 617.98C444.15 617.36 445.184 616.926 446.47 616.68C453.35 615.353 457.257 618.373 458.19 625.74C458.201 625.816 458.197 625.894 458.181 625.968C458.164 626.041 458.135 626.11 458.094 626.168C458.053 626.227 458.003 626.274 457.945 626.307C457.888 626.34 457.825 626.358 457.76 626.36L453.61 626.38C453.42 626.381 453.234 626.305 453.084 626.166C452.934 626.027 452.83 625.834 452.79 625.62C452.264 622.793 450.744 621.42 448.23 621.5C447.781 621.514 447.349 621.669 446.993 621.941C446.638 622.214 446.378 622.591 446.25 623.02C445.564 625.293 445.804 627.36 446.97 629.22C447.218 629.612 447.565 629.936 447.98 630.162C448.394 630.387 448.862 630.507 449.34 630.51L457.69 630.55C457.762 630.55 457.833 630.563 457.899 630.589C457.965 630.615 458.025 630.652 458.076 630.7C458.126 630.747 458.166 630.804 458.192 630.865C458.219 630.927 458.232 630.993 458.23 631.06L458.13 635.31C458.128 635.451 458.067 635.586 457.963 635.685C457.858 635.784 457.717 635.84 457.57 635.84H439.95C439.805 635.839 439.664 635.786 439.554 635.691C439.444 635.595 439.372 635.464 439.35 635.32C439.237 634.606 439.19 633.89 439.21 633.17C439.217 633.056 439.197 632.613 439.15 631.84C439.097 630.813 439.61 630.326 440.69 630.38C440.746 630.382 440.801 630.373 440.852 630.351C440.903 630.329 440.948 630.297 440.983 630.256C441.019 630.215 441.043 630.166 441.055 630.115C441.066 630.063 441.065 630.01 441.05 629.96Z" fill="black"/>
<path d="M26.3096 648.69C28.4746 648.69 30.2296 646.935 30.2296 644.77C30.2296 642.605 28.4746 640.85 26.3096 640.85C24.1447 640.85 22.3896 642.605 22.3896 644.77C22.3896 646.935 24.1447 648.69 26.3096 648.69Z" fill="black"/>
<path d="M37.4696 648.69C39.6401 648.69 41.3996 646.931 41.3996 644.76C41.3996 642.59 39.6401 640.83 37.4696 640.83C35.2992 640.83 33.5396 642.59 33.5396 644.76C33.5396 646.931 35.2992 648.69 37.4696 648.69Z" fill="black"/>
</svg>
