<svg width="859" height="649" viewBox="0 0 859 649" fill="none" xmlns="http://www.w3.org/2000/svg">
<path d="M239.474 44.7059C239.361 44.2126 239.438 43.7259 239.704 43.2459C245.138 33.4125 252.368 25.1559 261.394 18.4759C275.461 8.06254 291.398 2.0692 309.204 0.495873C319.478 -0.410797 329.394 -0.0741273 338.954 1.50587C353.314 3.8792 366.35 9.34919 378.064 17.9159C385.904 23.6492 392.524 30.7592 397.924 39.2459C398.033 39.4174 398.078 39.622 398.05 39.8233C398.023 40.0247 397.925 40.2098 397.774 40.3459C396.601 41.4259 395.668 42.5259 394.974 43.6459C393.847 45.4459 393.04 46.6059 392.554 47.1259C379.621 60.9059 365.871 73.8159 351.304 85.8559C320.964 110.929 287.33 130.286 250.404 143.926C250.226 143.993 250.03 144.002 249.845 143.952C249.66 143.902 249.496 143.795 249.374 143.646C239.841 131.999 233.901 118.976 231.554 104.576C230.694 99.2961 230.244 93.9992 230.204 88.6859C230.164 83.0459 230.454 77.7559 231.074 72.8159C232.261 63.3226 235.041 54.2592 239.414 45.6259C239.536 45.3881 239.558 45.0588 239.474 44.7059Z" fill="white"/>
<path d="M520.044 105.206C519.98 105.23 519.922 105.269 519.875 105.319C519.827 105.369 519.792 105.429 519.772 105.494C519.752 105.56 519.747 105.63 519.758 105.697C519.768 105.765 519.794 105.83 519.834 105.886C531.527 122.019 543.087 138.036 554.514 153.936C556.681 156.949 557.221 160.143 556.134 163.516C555.261 166.209 553.727 168.193 551.534 169.466C550.101 170.299 547.801 170.773 544.634 170.886C533.721 171.286 525.494 171.239 519.954 170.746C517.134 170.493 514.567 168.819 512.254 165.726C498.887 147.839 485.557 129.926 472.264 111.986C471.217 110.579 470.611 109.816 470.444 109.696C469.664 109.163 468.591 109.049 467.224 109.356C467.081 109.387 466.954 109.467 466.861 109.581C466.769 109.695 466.717 109.838 466.714 109.986C466.474 126.006 466.381 141.883 466.434 157.616C466.447 161.269 465.997 163.943 465.084 165.636C463.171 169.156 459.794 170.929 454.954 170.956C449.541 170.983 444.124 171.006 438.704 171.026C430.024 171.059 425.701 166.716 425.734 157.996C425.881 120.883 425.954 83.7694 425.954 46.6561C425.954 46.6161 425.977 46.3461 426.024 45.8461C426.091 45.1594 425.817 44.6261 425.204 44.2461C424.291 43.6794 424.354 42.7428 425.394 41.4361C435.221 29.0361 444.584 16.2961 453.484 3.21609C453.57 3.08988 453.686 2.98659 453.822 2.91515C453.958 2.84371 454.11 2.80628 454.264 2.80609C466.831 2.73275 479.394 2.71276 491.954 2.74609C497.727 2.75942 502.611 3.09942 506.604 3.76609C529.937 7.66609 544.411 21.0161 550.024 43.8161C550.091 44.0961 550.237 44.3894 550.464 44.6961C550.851 45.2161 551.097 45.8161 551.204 46.4961C552.777 56.2494 552.037 65.8094 548.984 75.1761C544.151 89.9828 534.504 99.9931 520.044 105.206Z" fill="white"/>
<path d="M611.524 130.186C632.164 130.259 652.807 130.283 673.454 130.256C680.374 130.249 684.481 132.969 685.774 138.416C686.087 139.729 686.247 143.126 686.254 148.606C686.261 152.013 686.207 155.419 686.094 158.826C685.994 161.919 685.444 164.256 684.444 165.836C682.277 169.256 678.697 170.976 673.704 170.996C643.157 171.116 612.611 171.043 582.064 170.776C579.297 170.749 577.151 170.303 575.624 169.436C572.771 167.816 571.034 165.403 570.414 162.196C570.267 161.429 570.204 158.623 570.224 153.776C570.391 109.776 570.161 65.7794 569.534 21.7861C569.447 15.2994 569.567 11.4528 569.894 10.2461C570.814 6.89942 572.984 4.66276 576.404 3.53609C578.011 3.00942 580.904 2.74609 585.084 2.74609C589.084 2.74609 593.081 2.74609 597.074 2.74609C600.414 2.74609 602.917 3.19609 604.584 4.09609C607.317 5.58276 609.011 7.87276 609.664 10.9661C609.824 11.7394 609.944 14.4328 610.024 19.0461C610.624 55.9194 610.954 92.7961 611.014 129.676C611.014 129.743 611.027 129.809 611.053 129.871C611.078 129.933 611.116 129.989 611.163 130.037C611.211 130.084 611.267 130.122 611.329 130.147C611.391 130.173 611.457 130.186 611.524 130.186Z" fill="white"/>
<path d="M705.284 6.59609C706.584 5.01609 708.151 3.91609 709.984 3.29609C711.071 2.92943 712.907 2.74609 715.494 2.74609C734.481 2.74609 753.468 2.74609 772.454 2.74609C783.648 2.74609 793.988 4.14609 803.474 6.94609C810.121 8.91279 816.204 11.5894 821.724 14.9761C832.158 21.3828 840.298 29.9094 846.144 40.5561C846.878 41.8961 847.554 42.9828 848.174 43.8161C849.241 45.2494 849.914 46.3094 850.194 46.9961C854.454 57.3294 856.708 68.4128 856.954 80.2461C857.081 86.3861 856.991 92.1194 856.684 97.4461C856.304 103.946 855.497 109.603 854.264 114.416C852.051 123.096 848.458 131.126 843.484 138.506C839.758 144.033 835.264 148.916 830.004 153.156C817.704 163.069 803.271 168.766 786.704 170.246C779.124 170.926 772.124 171.259 765.704 171.246C749.018 171.206 732.334 171.056 715.654 170.796C712.754 170.756 710.551 170.286 709.044 169.386C705.484 167.259 703.704 163.629 703.704 158.496C703.704 132.909 703.704 107.326 703.704 81.7461C703.704 75.9261 703.634 69.2628 703.494 61.7561C703.241 48.1361 703.061 32.0494 702.954 13.4961C702.941 10.8094 703.718 8.50939 705.284 6.59609ZM773.524 50.2257C770.678 56.159 767.578 61.9557 764.224 67.6157C763.404 69.009 762.594 70.159 761.794 71.0657C760.661 72.3457 759.611 73.3023 758.644 73.9357C753.644 77.2023 747.511 80.4757 740.244 83.7557C739.144 84.2557 738.377 84.7123 737.944 85.1257C736.957 86.079 736.837 87.059 737.584 88.0657C738.017 88.6457 738.907 89.239 740.254 89.8457C746.581 92.699 752.664 95.9957 758.504 99.7361C759.704 100.509 760.704 101.332 761.504 102.206C762.504 103.293 763.301 104.326 763.894 105.306C767.114 110.639 770.384 116.869 773.704 123.996C774.538 125.783 775.624 126.313 776.964 125.586C777.638 125.219 778.237 124.463 778.764 123.316C781.124 118.169 783.727 113.156 786.574 108.276C788.614 104.776 790.774 102.092 793.054 100.226C796.174 97.6723 799.787 95.5757 803.894 93.9357C806.481 92.8957 809.541 91.339 813.074 89.2657C814.054 88.6923 814.667 88.049 814.914 87.3357C815.334 86.089 814.848 85.1424 813.454 84.4957C806.141 81.1023 799.761 77.7357 794.314 74.3957C793.234 73.7357 792.277 72.999 791.444 72.1857C790.224 70.9923 789.414 70.0757 789.014 69.4357C786.067 64.7023 782.527 58.0757 778.394 49.5557C777.594 47.9223 776.561 47.4323 775.294 48.0857C774.641 48.4257 774.051 49.139 773.524 50.2257Z" fill="white"/>
<path d="M157.034 132.626C164.794 130.933 169.684 125.639 171.704 116.746C173.084 110.659 173.734 103.659 173.654 95.7461C173.294 60.4061 172.977 36.9894 172.704 25.4961C172.61 21.6961 172.57 18.5928 172.584 16.1861C172.597 12.3661 173.234 9.53279 174.494 7.68609C176.614 4.55943 180.1 2.99609 184.954 2.99609C189.234 2.99609 193.517 2.99609 197.804 2.99609C203.757 2.99609 207.337 3.17943 208.544 3.54609C211.444 4.41943 213.537 6.29275 214.824 9.16609C215.57 10.8461 215.934 13.4561 215.914 16.9961C215.88 23.2494 215.96 29.4994 216.154 35.7461C216.72 54.2261 216.884 72.7061 216.644 91.1861C216.644 91.3443 216.613 91.5001 216.553 91.6444C216.492 91.7887 216.404 91.9185 216.294 92.0261C209.4 98.9131 202.63 105.916 195.984 113.036C188.444 121.116 181.537 129.706 175.264 138.806C171.13 144.806 168.547 150.306 167.514 155.306C166.314 161.119 167.467 166.313 170.974 170.886C171.009 170.93 171.033 170.982 171.042 171.038C171.052 171.094 171.046 171.151 171.027 171.204C171.008 171.257 170.976 171.305 170.933 171.342C170.891 171.379 170.839 171.405 170.784 171.416C156.637 174.663 142.71 174.299 129.004 170.326C121.704 168.213 115.047 164.686 109.034 159.746C108.868 159.609 108.661 159.532 108.447 159.527C108.233 159.521 108.024 159.588 107.854 159.716C96.2872 168.323 83.6539 172.916 69.9539 173.496C61.8072 173.843 54.2439 173.179 47.2639 171.506C25.2572 166.246 11.0905 152.736 4.76388 130.976C3.29055 125.909 2.23388 120.773 1.59388 115.566C1.18722 112.233 0.943889 107.013 0.863889 99.9061C0.563889 72.4461 0.277219 44.9861 0.00388944 17.5261C-0.0427806 13.2461 0.330549 10.2828 1.12388 8.63609C2.15055 6.49609 3.79722 4.92943 6.06389 3.93609C7.49722 3.30943 9.6406 2.99609 12.4939 2.99609C18.3272 2.99609 24.1605 2.99609 29.9939 2.99609C33.4539 2.99609 36.0139 3.45609 37.6739 4.37609C41.2206 6.34942 42.9805 9.80609 42.9539 14.7461C42.9072 23.5461 43.0472 33.4661 43.3739 44.5061C43.6272 53.0861 43.7772 59.7461 43.8239 64.4861C43.9439 76.6528 43.9905 88.8228 43.9639 100.996C43.9505 106.503 44.5905 111.926 45.8839 117.266C48.0505 126.213 53.4072 131.456 61.9539 132.996C68.2805 134.136 73.6539 132.826 78.0739 129.066C81.0072 126.573 83.2272 122.909 84.7339 118.076C86.2406 113.229 87.0039 108.203 87.0239 102.996C87.0906 81.8294 86.8839 60.6628 86.4039 39.4961C86.0639 24.6894 85.9972 15.7728 86.2039 12.7461C86.4772 8.73939 88.2039 5.93276 91.3839 4.32609C93.1305 3.43943 96.0839 2.99609 100.244 2.99609C104.277 2.99609 108.314 2.99609 112.354 2.99609C117.76 2.99609 120.98 3.14276 122.014 3.43609C124.534 4.14943 126.474 5.67276 127.834 8.00609C128.734 9.54609 129.22 11.8028 129.294 14.7761C130.127 47.8428 130.514 76.1661 130.454 99.7461C130.434 106.493 131.17 112.596 132.664 118.056C134.31 124.076 137.54 128.353 142.354 130.886C146.787 133.213 151.68 133.793 157.034 132.626Z" fill="white"/>
<path d="M296.904 171.505C287.164 169.419 278.064 165.862 269.604 160.835C269.084 160.529 269.104 160.259 269.664 160.025C295.404 149.445 319.554 136.149 342.114 120.135C365.974 103.202 387.981 83.9655 408.134 62.4255C408.554 61.9788 408.834 62.0521 408.974 62.6455C411.627 74.0121 412.371 85.6288 411.204 97.4955C410.244 107.269 407.901 116.215 404.174 124.335C395.314 143.635 381.521 157.426 362.794 165.706C357.001 168.266 350.661 170.27 343.774 171.716C328.301 174.956 312.677 174.885 296.904 171.505Z" fill="white"/>
<path d="M564.644 358.676C557.33 350.249 552.12 340.669 549.014 329.936C547.334 324.122 546.247 317.989 545.754 311.536C545.267 305.122 545.157 298.926 545.424 292.946C546.144 276.919 550.924 262.456 559.764 249.556C570.964 233.222 586.617 222.316 606.724 216.836C630.104 210.462 652.89 211.576 675.084 220.176C679.29 221.809 682.1 223.436 683.514 225.056C685.947 227.842 686.51 231.406 685.204 235.746C684.49 238.119 682.577 243.756 679.464 252.656C678.344 255.869 677.067 258.156 675.634 259.516C672.047 262.942 667.707 263.232 662.614 260.386C661.32 259.659 660.66 259.292 660.634 259.286C649.987 253.819 638.99 251.999 627.644 253.826C620.804 254.926 614.624 257.269 609.104 260.856C596.837 268.829 590.287 281.042 589.454 297.496C589.16 303.269 589.614 308.739 590.814 313.906C592.08 319.372 594.264 324.319 597.364 328.746C604.237 338.552 614.124 344.269 627.024 345.896C634.47 346.836 641.594 346.016 648.394 343.436C649.994 342.822 651.534 341.862 653.014 340.556C654.88 338.916 655.824 337.229 655.844 335.496C655.917 330.162 655.954 324.506 655.954 318.526C655.954 318.421 655.933 318.318 655.892 318.221C655.851 318.125 655.791 318.037 655.716 317.963C655.641 317.89 655.551 317.832 655.453 317.793C655.355 317.754 655.25 317.734 655.144 317.736C645.63 317.849 636.42 317.802 627.514 317.596C624.254 317.522 621.814 316.999 620.194 316.026C616.807 313.999 615.09 310.656 615.044 305.996C614.984 300.162 614.997 294.329 615.084 288.496C615.157 283.696 616.9 280.362 620.314 278.496C622.14 277.496 625.32 276.996 629.854 276.996C648.387 277.002 666.92 277.032 685.454 277.086C690.034 277.099 693.32 278.792 695.314 282.166C696.234 283.732 696.714 286.049 696.754 289.116C696.96 304.982 697.027 323.609 696.954 344.996C696.94 349.249 696.297 353.286 695.024 357.106C693.784 360.839 691.764 364.302 688.964 367.496C685.097 371.909 680.45 375.436 675.024 378.076C669.764 380.629 664.32 382.582 658.694 383.936C653.634 385.149 647.947 386.026 641.634 386.566C630.794 387.486 620 386.789 609.254 384.476C598.42 382.142 588.527 377.946 579.574 371.886C573.967 368.086 568.99 363.682 564.644 358.676Z" fill="white"/>
<path d="M42.5138 257.056L42.4538 276.586C42.4538 276.761 42.5233 276.929 42.6471 277.053C42.7709 277.176 42.9388 277.246 43.1138 277.246C62.5072 277.246 81.8705 277.246 101.204 277.246C105.604 277.246 108.711 278.936 110.524 282.316C111.477 284.089 111.954 286.956 111.954 290.916C111.954 294.869 111.954 298.823 111.954 302.776C111.954 307.289 111.564 310.376 110.784 312.036C109.711 314.303 107.954 315.919 105.514 316.886C104.088 317.453 101.838 317.746 98.7641 317.766C80.3305 317.846 61.7438 317.903 43.0038 317.936C42.8579 317.936 42.718 317.994 42.6149 318.097C42.5118 318.2 42.4538 318.34 42.4538 318.486V342.576C42.4538 342.754 42.5245 342.924 42.6501 343.05C42.7758 343.175 42.9461 343.246 43.1238 343.246C66.4971 343.239 89.6205 343.333 112.494 343.526C115.621 343.553 117.974 343.989 119.554 344.836C122.034 346.163 123.628 348.156 124.334 350.816C124.58 351.749 124.704 355.049 124.704 360.716C124.704 363.003 124.704 365.286 124.704 367.566C124.704 372.113 124.704 374.399 124.704 374.426C124.304 378.213 122.504 380.946 119.304 382.626C117.564 383.539 114.914 383.996 111.354 383.996C81.0671 383.996 50.7805 383.996 20.4938 383.996C14.3405 383.996 10.8238 383.886 9.9438 383.666C6.99714 382.926 4.76715 381.176 3.25382 378.416C2.38715 376.843 1.94715 374.646 1.93382 371.826C1.62048 324.326 1.61715 276.826 1.92381 229.326C1.95048 225.426 2.44714 222.633 3.41381 220.946C4.58048 218.913 6.29381 217.453 8.5538 216.566C9.9405 216.019 12.0805 215.746 14.9738 215.746C46.6805 215.746 78.3838 215.746 110.084 215.746C114.55 215.746 117.714 216.239 119.574 217.226C122.367 218.706 124.034 221.089 124.574 224.376C124.66 224.903 124.704 227.649 124.704 232.616C124.704 235.749 124.704 238.886 124.704 242.026C124.704 246.419 124.257 249.493 123.364 251.246C121.671 254.566 118.618 256.233 114.204 256.246C90.4705 256.326 66.7372 256.429 43.0038 256.556C42.8739 256.556 42.7492 256.609 42.6573 256.702C42.5654 256.796 42.5138 256.923 42.5138 257.056Z" fill="white"/>
<path d="M152.404 383.316C149.824 382.296 147.931 380.689 146.724 378.496C145.924 377.043 145.514 374.753 145.494 371.626C145.234 326.133 145.211 280.636 145.424 235.136C145.457 228.323 145.681 224.253 146.094 222.926C147.601 218.139 151.637 215.746 158.204 215.746C256.457 215.746 354.707 215.749 452.954 215.756C458.894 215.756 464.771 216.239 470.584 217.206C476.564 218.193 482.224 219.726 487.564 221.806C512.017 231.313 527.231 249.543 533.204 276.496C534.271 281.316 534.874 287.086 535.014 293.806C535.154 300.359 535.071 306.149 534.764 311.176C534.317 318.576 533.131 325.183 531.204 330.996C521.904 359.109 502.657 376.123 473.464 382.036C466.944 383.349 460.357 384.006 453.704 384.006C354.371 383.999 255.134 383.996 155.994 383.996C154.754 383.996 153.557 383.769 152.404 383.316ZM485.474 263.726C476.481 256.073 466.307 252.246 454.954 252.246C362.954 252.246 270.954 252.246 178.954 252.246C178.888 252.246 178.823 252.259 178.763 252.284C178.702 252.309 178.647 252.346 178.6 252.392C178.554 252.439 178.517 252.494 178.492 252.555C178.467 252.615 178.454 252.68 178.454 252.746V347.936C178.454 348.151 178.539 348.357 178.691 348.509C178.843 348.661 179.049 348.746 179.264 348.746C265.644 348.746 351.624 348.806 437.204 348.926C446.724 348.933 453.474 348.789 457.454 348.496C469.994 347.563 480.474 342.793 488.894 334.186C495.847 327.073 500.177 318.743 501.884 309.196C503.071 302.509 502.904 295.896 501.384 289.356C499.051 279.309 493.747 270.766 485.474 263.726Z" fill="white"/>
<path d="M754.264 343.186C784.491 343.219 814.714 343.336 844.934 343.536C848.094 343.556 850.477 344.003 852.084 344.876C854.597 346.243 856.197 348.283 856.884 350.996C857.097 351.829 857.204 355.173 857.204 361.026C857.204 363.346 857.204 365.669 857.204 367.996C857.204 372.083 857.164 374.409 857.084 374.976C856.557 378.696 854.691 381.299 851.484 382.786C849.737 383.593 846.827 383.996 842.754 383.996C804.501 383.996 766.244 383.996 727.984 383.996C723.537 383.996 720.431 383.523 718.664 382.576C716.457 381.389 714.901 379.566 713.994 377.106C713.467 375.672 713.204 373.399 713.204 370.286C713.204 322.773 713.204 275.259 713.204 227.746C713.204 221.666 715.954 217.749 721.454 215.996C722.461 215.676 725.044 215.523 729.204 215.536C759.817 215.669 790.434 215.739 821.054 215.746C825.901 215.746 829.247 216.253 831.094 217.266C834.541 219.146 836.254 222.556 836.234 227.496C836.214 233.496 836.204 239.496 836.204 245.496C836.204 249.876 834.477 253.006 831.024 254.886C829.371 255.793 826.911 256.253 823.644 256.266C800.577 256.366 777.514 256.443 754.454 256.496C754.321 256.496 754.194 256.549 754.1 256.642C754.007 256.736 753.954 256.863 753.954 256.996V276.686C753.954 276.834 754.013 276.977 754.118 277.082C754.223 277.187 754.365 277.246 754.514 277.246C773.641 277.246 792.704 277.223 811.704 277.176C816.231 277.163 819.514 278.749 821.554 281.936C822.654 283.656 823.264 286.316 823.384 289.916C823.551 295.029 823.547 300.143 823.374 305.256C823.261 308.689 822.667 311.229 821.594 312.876C819.487 316.103 816.024 317.726 811.204 317.746C792.291 317.833 773.374 317.916 754.454 317.996C754.324 317.996 754.199 318.047 754.108 318.139C754.016 318.231 753.964 318.356 753.964 318.486L753.784 342.676C753.783 342.742 753.794 342.809 753.818 342.87C753.841 342.932 753.876 342.989 753.921 343.036C753.966 343.084 754.019 343.121 754.078 343.147C754.137 343.173 754.2 343.186 754.264 343.186Z" fill="white"/>
<path d="M815.144 505.806C810.044 501.846 807.474 496.41 807.434 489.496C807.301 469.45 807.307 455.95 807.454 448.996C807.687 437.59 812.937 430.34 823.204 427.246C827.924 425.82 832.811 425.626 837.864 426.666C842.751 427.673 846.641 429.539 849.534 432.265C852.814 435.359 854.891 439.416 855.764 444.436C856.384 447.983 856.677 451.17 856.644 453.996C856.557 461.163 856.501 468.33 856.474 475.496C856.434 486.383 856.097 493.02 855.464 495.406C852.924 505 845.607 510.226 833.514 511.086C826.447 511.593 820.324 509.833 815.144 505.806ZM819.644 501.056C825.104 505.189 831.454 506.162 838.694 503.976C846.201 501.702 849.954 496.792 849.954 489.246C849.954 476.666 850.034 464.082 850.194 451.496C850.361 438.816 844.094 432.463 831.394 432.436C823.641 432.416 818.387 435.412 815.634 441.426C814.687 443.493 814.181 446.453 814.114 450.306C813.927 461.066 813.861 471.83 813.914 482.596C813.947 488.216 814.051 491.48 814.224 492.386C814.911 495.952 816.717 498.842 819.644 501.056Z" fill="white"/>
<path d="M8.9741 505.716C4.86739 501.922 2.68406 497.182 2.42406 491.496C2.14406 485.469 2.07739 479.439 2.22406 473.406C2.30406 469.972 2.32073 465.696 2.27406 460.576C2.23406 456.849 2.29406 452.572 2.45406 447.746C2.66073 441.319 4.75406 436.269 8.7341 432.596C12.2007 429.396 16.8707 427.519 22.7441 426.966C28.5174 426.426 34.2174 427.359 39.8441 429.766C41.1241 430.312 41.3207 431.489 40.4341 433.296C39.8607 434.476 38.9541 434.842 37.7141 434.396C32.9274 432.662 27.9641 432.222 22.8241 433.076C18.8241 433.736 15.6941 435.109 13.4341 437.196C10.6607 439.749 9.1674 443.099 8.9541 447.246C8.6007 453.992 8.5741 466.932 8.8741 486.066C8.9407 490.579 9.3474 493.819 10.0941 495.786C11.4341 499.312 13.7574 501.849 17.0641 503.396C20.0441 504.782 24.0441 505.276 29.0641 504.876C33.1841 504.549 37.2007 503.712 41.1141 502.366C41.506 502.231 41.9335 502.244 42.3151 502.403C42.6968 502.561 43.006 502.854 43.1841 503.226C44.1174 505.159 44.2141 506.526 43.4741 507.326C43.2207 507.599 42.2141 508.019 40.4541 508.586C33.0007 510.992 25.6041 511.609 18.2641 510.436C14.8974 509.896 11.8007 508.322 8.9741 505.716Z" fill="white"/>
<path d="M509.684 459.756C506.504 456.856 504.651 453.449 504.124 449.536C503.637 445.969 504.281 442.376 506.054 438.756C508.407 433.936 512.207 430.682 517.454 428.996C526.574 426.062 535.654 426.152 544.694 429.266C547.201 430.132 547.537 431.972 545.704 434.786C545.46 435.16 545.096 435.441 544.673 435.583C544.25 435.724 543.792 435.718 543.374 435.566C538.354 433.719 533.297 432.946 528.204 433.246C524.451 433.466 521.131 434.312 518.244 435.786C515.637 437.119 513.681 438.862 512.374 441.016C510.861 443.522 510.404 446.259 511.004 449.226C511.444 451.439 512.507 453.366 514.194 455.006C515.774 456.546 517.674 457.812 519.894 458.806C524.261 460.766 528.024 462.266 531.184 463.306C535.097 464.599 538.941 466.072 542.714 467.726C546.294 469.299 549.451 471.479 552.184 474.266C555.291 477.446 557.014 481.269 557.354 485.736C557.867 492.496 556.237 498.082 552.464 502.496C549.184 506.322 544.481 508.909 538.354 510.256C532.001 511.649 525.524 511.372 518.924 509.426C510.877 507.052 505.314 501.462 502.234 492.656C501.541 490.669 502.231 489.502 504.304 489.156C505.004 489.042 506.161 489.109 507.774 489.356C507.92 489.376 508.056 489.44 508.168 489.539C508.28 489.639 508.362 489.769 508.404 489.916C510.804 498.089 516.174 502.929 524.514 504.436C529.274 505.296 534.191 504.916 539.264 503.296C543.464 501.962 546.504 499.582 548.384 496.156C550.204 492.849 550.774 489.306 550.094 485.526C549.301 481.119 546.694 477.669 542.274 475.176C538.741 473.182 535.051 471.536 531.204 470.236C529.304 469.589 525.451 468.112 519.644 465.806C515.711 464.246 512.391 462.229 509.684 459.756Z" fill="white"/>
<path d="M706.364 509.636C704.757 509.502 703.954 508.632 703.954 507.026V429.986C703.954 428.726 704.581 428.059 705.834 427.986C710.287 427.739 714.757 427.659 719.244 427.746C725.631 427.866 730.094 428.146 732.634 428.586C745.581 430.826 752.374 439.379 753.014 454.246C753.494 465.319 753.431 476.386 752.824 487.446C752.544 492.466 751.794 496.222 750.574 498.716C748.654 502.616 745.724 505.496 741.784 507.356C739.237 508.556 735.384 509.339 730.224 509.706C722.071 510.292 714.117 510.269 706.364 509.636ZM712.434 503.846C716.921 504.039 721.677 504.152 726.704 504.186C731.437 504.212 735.501 503.379 738.894 501.686C743.694 499.279 746.134 495.132 746.214 489.246C746.374 477.666 746.501 466.083 746.594 454.496C746.674 444.87 742.901 438.543 735.274 435.516C732.601 434.449 728.821 433.859 723.934 433.746C719.981 433.646 716.127 433.716 712.374 433.956C711.094 434.036 710.454 434.72 710.454 436.006V501.776C710.454 503.096 711.114 503.786 712.434 503.846Z" fill="white"/>
<path d="M64.6037 509.646C64.2684 509.504 63.982 509.266 63.7795 508.962C63.5769 508.659 63.4672 508.302 63.4637 507.936C63.1237 481.556 63.1171 455.603 63.4437 430.076C63.4637 428.689 64.1671 427.996 65.5537 427.996C74.4071 427.996 83.1237 427.996 91.7037 427.996C100.47 427.996 106.697 431.153 110.384 437.466C112.624 441.299 113.831 446.319 114.004 452.526C114.151 457.799 113.494 463.023 112.034 468.196C110.927 472.136 108.667 475.406 105.254 478.006C104.34 478.699 104.067 479.589 104.434 480.676L113.294 507.266C113.441 507.708 113.417 508.188 113.228 508.612C113.04 509.036 112.699 509.373 112.274 509.556C110.747 510.216 109.307 510.179 107.954 509.446C107.678 509.298 107.46 509.034 107.344 508.706L97.8837 482.046C97.8081 481.832 97.6689 481.647 97.4848 481.514C97.3007 481.382 97.0804 481.309 96.8537 481.306C89.067 481.233 81.1837 481.213 73.2037 481.246C70.8104 481.253 69.697 482.289 69.8637 484.356C69.9304 485.136 69.9637 485.566 69.9637 485.646C70.077 493.079 69.9771 500.506 69.6637 507.926C69.6511 508.273 69.5257 508.584 69.3137 508.796C67.987 510.149 66.417 510.433 64.6037 509.646ZM70.4141 473.926C71.1874 474.546 71.8674 474.853 72.4541 474.846C78.9541 474.779 85.4508 474.826 91.9441 474.986C96.6708 475.106 100.321 473.839 102.894 471.186C104.834 469.179 106.121 466.603 106.754 463.456C107.161 461.443 107.421 458.636 107.534 455.036C107.661 451.256 107.281 447.763 106.394 444.556C104.567 437.976 100.087 434.609 92.9541 434.456C86.7541 434.329 80.5574 434.259 74.3641 434.246C72.6841 434.246 71.7474 434.273 71.5541 434.326C70.4874 434.646 69.9541 435.619 69.9541 437.246C69.9541 449.246 69.9541 461.153 69.9541 472.966C69.954 473.15 69.9953 473.332 70.0749 473.498C70.1545 473.664 70.2704 473.811 70.4141 473.926Z" fill="white"/>
<path d="M142.914 468.796C142.601 470.429 142.441 472.079 142.434 473.746C142.414 483.139 142.444 492.616 142.524 502.176C142.527 502.661 142.725 503.125 143.075 503.467C143.425 503.81 143.899 504.003 144.394 504.006L173.694 504.226C173.851 504.229 174.002 504.272 174.133 504.352C174.263 504.431 174.368 504.543 174.434 504.676C175.194 506.203 175.257 507.626 174.624 508.946C174.475 509.26 174.24 509.525 173.946 509.711C173.652 509.897 173.312 509.996 172.964 509.996H137.894C137.671 509.996 137.45 509.952 137.243 509.867C137.037 509.782 136.85 509.658 136.692 509.501C136.534 509.344 136.409 509.158 136.323 508.953C136.238 508.748 136.194 508.528 136.194 508.306L135.954 429.886C135.954 429.646 136.001 429.408 136.093 429.186C136.185 428.964 136.32 428.762 136.49 428.592C136.66 428.422 136.862 428.287 137.084 428.195C137.306 428.103 137.544 428.056 137.784 428.056L173.494 427.996C173.742 427.996 173.985 428.073 174.187 428.219C174.39 428.364 174.543 428.569 174.624 428.806C175.337 430.873 175.284 432.459 174.464 433.566C174.377 433.681 174.258 433.774 174.116 433.838C173.973 433.903 173.812 433.936 173.644 433.936L144.584 433.996C143.364 433.996 142.724 434.603 142.664 435.816C142.284 443.856 142.294 452.099 142.694 460.546C142.707 460.802 142.818 461.044 143.004 461.221C143.19 461.398 143.437 461.496 143.694 461.496H162.874C163.251 461.497 163.619 461.604 163.936 461.806C164.254 462.008 164.506 462.296 164.664 462.636C165.344 464.116 165.374 465.529 164.754 466.876C164.596 467.225 164.334 467.522 163.999 467.731C163.664 467.94 163.27 468.053 162.864 468.056L143.514 468.276C143.372 468.279 143.234 468.332 143.125 468.427C143.016 468.521 142.941 468.652 142.914 468.796Z" fill="white"/>
<path d="M189.524 509.775C189.301 509.714 189.092 509.608 188.911 509.463C188.73 509.319 188.58 509.14 188.47 508.937C188.36 508.733 188.292 508.509 188.27 508.279C188.248 508.048 188.274 507.816 188.344 507.595L213.484 429.165C213.534 429.008 213.615 428.863 213.72 428.741C213.825 428.619 213.952 428.522 214.094 428.455C215.987 427.595 217.854 427.632 219.694 428.565C219.833 428.635 219.958 428.735 220.061 428.858C220.164 428.982 220.243 429.127 220.294 429.285L245.814 507.575C245.877 507.774 245.901 507.983 245.884 508.19C245.867 508.398 245.808 508.6 245.713 508.785C245.617 508.97 245.486 509.134 245.326 509.268C245.167 509.402 244.982 509.503 244.784 509.565C242.27 510.359 240.51 510.122 239.504 508.855C239.29 508.589 238.767 507.192 237.934 504.665C235.554 497.432 233.14 490.025 230.694 482.445C230.58 482.096 230.359 481.792 230.062 481.576C229.766 481.361 229.409 481.245 229.044 481.245H204.694C204.403 481.246 204.121 481.337 203.887 481.506C203.654 481.675 203.481 481.913 203.394 482.185L194.794 508.695C194.743 508.857 194.665 509.004 194.563 509.13C194.462 509.255 194.34 509.356 194.204 509.425C192.77 510.132 191.21 510.249 189.524 509.775ZM207.094 474.446C207.36 474.642 207.682 474.747 208.014 474.746H225.694C227.567 474.746 228.217 473.856 227.644 472.076C224.637 462.736 221.634 453.399 218.634 444.066C218.427 443.419 218.181 442.956 217.894 442.676C217.381 442.176 216.817 442.069 216.204 442.356C215.71 442.583 215.34 443.096 215.094 443.896C212.147 453.23 209.177 462.553 206.184 471.866C205.844 472.92 206.147 473.78 207.094 474.446Z" fill="white"/>
<path d="M270.134 433.806L252.104 433.746C251.816 433.746 251.539 433.637 251.333 433.443C251.128 433.248 251.009 432.984 251.004 432.706L250.954 429.086C250.952 428.953 250.977 428.82 251.028 428.696C251.08 428.572 251.157 428.458 251.254 428.363C251.351 428.267 251.468 428.191 251.597 428.138C251.725 428.085 251.864 428.057 252.004 428.056L296.074 427.996C296.478 427.997 296.868 428.14 297.177 428.399C297.486 428.659 297.694 429.019 297.764 429.416C298.197 431.889 297.764 433.323 296.464 433.716C296.398 433.736 295.224 433.743 292.944 433.736C287.964 433.716 282.987 433.739 278.014 433.806C277.949 433.806 277.882 433.819 277.822 433.844C277.761 433.869 277.707 433.906 277.661 433.952C277.614 433.999 277.577 434.054 277.552 434.115C277.527 434.175 277.514 434.24 277.514 434.306L277.204 509.246C277.205 509.401 277.152 509.549 277.059 509.66C276.965 509.77 276.838 509.833 276.704 509.836L271.654 509.916C271.538 509.917 271.422 509.893 271.315 509.845C271.207 509.797 271.108 509.726 271.025 509.635C270.943 509.545 270.877 509.438 270.832 509.32C270.787 509.201 270.764 509.074 270.764 508.946L270.644 434.306C270.644 434.173 270.589 434.046 270.494 433.952C270.398 433.859 270.269 433.806 270.134 433.806Z" fill="white"/>
<path d="M321.111 428.01L317.311 428.023C316.51 428.026 315.863 428.677 315.866 429.478L316.142 508.458C316.145 509.259 316.796 509.905 317.597 509.903L321.397 509.889C322.198 509.887 322.845 509.235 322.842 508.434L322.566 429.455C322.563 428.654 321.912 428.007 321.111 428.01Z" fill="white"/>
<path d="M366.534 498.276C367.174 500.516 367.81 500.512 368.444 498.265L387.964 429.696C388.071 429.314 388.287 428.971 388.587 428.707C388.886 428.443 389.257 428.268 389.654 428.205C393 427.665 394.67 428.289 394.664 430.075C394.664 430.289 394.33 431.563 393.664 433.896C386.617 458.676 379.504 483.516 372.324 508.416C372.237 508.717 372.068 508.988 371.837 509.198C371.605 509.408 371.32 509.549 371.014 509.605C368.24 510.099 366.004 510.176 364.304 509.836C363.865 509.753 363.457 509.546 363.127 509.243C362.797 508.939 362.557 508.55 362.434 508.116C355.087 482.576 347.9 457.496 340.874 432.876C340.86 432.823 340.67 432.285 340.304 431.265C339.384 428.692 340.91 427.653 344.884 428.146C346.017 428.286 346.744 428.913 347.064 430.026L366.534 498.276Z" fill="white"/>
<path d="M413.164 509.666C412.807 509.52 412.5 509.273 412.285 508.954C412.069 508.635 411.954 508.26 411.954 507.876V430.296C411.954 428.802 412.697 428.056 414.184 428.056H449.634C449.803 428.056 449.966 428.092 450.109 428.162C450.252 428.232 450.371 428.333 450.454 428.456C451.221 429.569 451.314 431.082 450.734 432.996C450.644 433.285 450.465 433.539 450.222 433.719C449.979 433.899 449.685 433.996 449.384 433.996H419.964C419.626 433.995 419.302 434.125 419.062 434.355C418.823 434.586 418.687 434.898 418.684 435.226L418.494 459.876C418.491 460.289 418.656 460.687 418.953 460.982C419.249 461.276 419.652 461.443 420.074 461.446C425.907 461.479 432.094 461.552 438.634 461.666C440.554 461.699 441.241 463.196 440.694 466.156C440.467 467.362 439.724 467.972 438.464 467.986L420.244 468.146C419.774 468.151 419.324 468.342 418.995 468.678C418.665 469.013 418.481 469.465 418.484 469.936L418.704 503.346C418.704 503.518 418.775 503.683 418.9 503.805C419.026 503.927 419.196 503.996 419.374 503.996C428.014 503.996 436.627 503.996 445.214 503.996C445.227 503.996 445.894 503.969 447.214 503.916C450.747 503.769 451.887 505.386 450.634 508.766C450.503 509.127 450.263 509.438 449.948 509.658C449.633 509.878 449.258 509.996 448.874 509.996C437.681 509.996 426.874 510.069 416.454 510.216C415.214 510.236 414.117 510.052 413.164 509.666Z" fill="white"/>
<path d="M594.014 434.306L593.954 509.436C593.954 509.585 593.895 509.727 593.79 509.832C593.685 509.937 593.542 509.996 593.394 509.996H588.144C588.053 509.996 587.963 509.978 587.88 509.944C587.796 509.909 587.72 509.858 587.656 509.794C587.592 509.73 587.541 509.654 587.506 509.57C587.471 509.487 587.454 509.397 587.454 509.306V434.406C587.454 434.231 587.383 434.063 587.257 433.94C587.132 433.816 586.961 433.746 586.784 433.746L568.764 433.686C568.608 433.686 568.457 433.647 568.324 433.574C568.191 433.5 568.08 433.394 568.004 433.266C567.017 431.58 567.084 429.973 568.204 428.446C568.293 428.325 568.414 428.227 568.557 428.159C568.699 428.091 568.859 428.056 569.024 428.056C591.87 427.943 606.514 427.923 612.954 427.996C614.154 428.01 614.714 428.6 614.634 429.766C614.6 430.226 614.577 430.883 614.564 431.736C614.55 432.276 614.417 432.783 614.164 433.256C614.095 433.386 613.985 433.495 613.848 433.57C613.711 433.646 613.55 433.686 613.384 433.686L594.504 433.806C594.374 433.806 594.249 433.859 594.157 433.953C594.065 434.046 594.014 434.174 594.014 434.306Z" fill="white"/>
<path d="M638.144 505.556C635.051 503.276 632.871 500.322 631.604 496.696C630.851 494.556 630.444 491.039 630.384 486.146C630.151 468.512 630.091 450.879 630.204 433.246C630.217 431.332 630.357 429.849 630.624 428.796C630.661 428.644 630.738 428.506 630.847 428.395C630.956 428.284 631.093 428.205 631.244 428.166C632.917 427.726 634.561 427.796 636.174 428.376C636.311 428.425 636.43 428.517 636.514 428.639C636.598 428.76 636.644 428.906 636.644 429.056C636.617 448.456 636.707 467.856 636.914 487.256C636.947 490.722 637.321 493.336 638.034 495.096C639.154 497.836 640.897 499.949 643.264 501.436C650.084 505.716 656.794 506.132 663.394 502.686C667.314 500.632 670.054 497.566 671.614 493.486C672.507 491.139 672.954 487.256 672.954 481.836C672.954 465.316 672.954 448.792 672.954 432.266C672.954 432.172 672.924 431.662 672.864 430.736C672.737 428.796 673.571 427.832 675.364 427.846C676.864 427.852 677.757 427.872 678.044 427.906C679.184 428.019 679.697 428.762 679.584 430.136C679.497 431.202 679.454 431.782 679.454 431.876C679.514 450.582 679.514 469.289 679.454 487.996C679.434 494.676 677.421 500.036 673.414 504.076C670.961 506.549 667.851 508.319 664.084 509.386C660.704 510.339 657.057 510.729 653.144 510.556C647.324 510.302 642.324 508.636 638.144 505.556Z" fill="white"/>
<path d="M782.553 428.016H779.873C778.824 428.016 777.974 428.866 777.974 429.915V508.056C777.974 509.105 778.824 509.956 779.873 509.956H782.553C783.603 509.956 784.454 509.105 784.454 508.056V429.915C784.454 428.866 783.603 428.016 782.553 428.016Z" fill="white"/>
<path d="M247.742 534.551L242.663 534.471C242.409 534.467 242.2 534.669 242.196 534.923L241.033 608.974C241.029 609.228 241.231 609.437 241.485 609.441L246.565 609.521C246.819 609.525 247.028 609.323 247.032 609.069L248.195 535.018C248.199 534.764 247.996 534.555 247.742 534.551Z" fill="white"/>
<path d="M450.602 534.559L445.763 534.482C445.437 534.477 445.17 534.738 445.164 535.063L444.005 608.854C444 609.18 444.259 609.448 444.585 609.454L449.424 609.53C449.75 609.535 450.018 609.275 450.024 608.949L451.183 535.158C451.188 534.832 450.928 534.564 450.602 534.559Z" fill="white"/>
<path d="M737.954 547.066C740.119 547.066 741.874 545.31 741.874 543.146C741.874 540.981 740.119 539.225 737.954 539.225C735.789 539.225 734.034 540.981 734.034 543.146C734.034 545.31 735.789 547.066 737.954 547.066Z" fill="white"/>
<path d="M749.134 547.076C751.299 547.076 753.054 545.321 753.054 543.156C753.054 540.991 751.299 539.236 749.134 539.236C746.969 539.236 745.214 540.991 745.214 543.156C745.214 545.321 746.969 547.076 749.134 547.076Z" fill="white"/>
<path d="M676.394 609.056C671.081 608.99 665.767 608.97 660.454 608.996C656.034 609.023 651.967 607.253 648.254 603.686C643.421 599.053 641.154 593.32 641.454 586.486C641.621 582.746 641.707 579 641.714 575.246C641.721 572.513 642.237 569.95 643.264 567.556C644.231 565.323 645.731 563.253 647.764 561.346C651.397 557.933 655.627 555.983 660.454 555.496C666.641 554.87 672.204 556.473 677.144 560.306C678.271 561.186 679.071 562.213 679.544 563.386C680.124 564.833 680.427 565.586 680.454 565.646C681.954 568.68 682.704 571.38 682.704 573.746C682.704 583.246 682.704 592.86 682.704 602.586C682.704 602.761 682.773 602.929 682.897 603.053C683.021 603.177 683.189 603.246 683.364 603.246C702.257 603.246 721.037 603.246 739.704 603.246C743.911 603.246 746.244 601.08 746.704 596.746C747.251 591.586 747.277 580.86 746.784 564.566C746.771 564.272 746.893 563.959 747.124 563.696C747.904 562.796 748.097 561.646 747.704 560.246C747.037 557.9 747.881 556.906 750.234 557.266C751.054 557.393 751.881 557.466 752.714 557.486C752.858 557.492 752.997 557.542 753.108 557.631C753.22 557.719 753.299 557.84 753.334 557.976C753.701 559.423 753.701 560.823 753.334 562.176C752.874 563.87 752.647 565.083 752.654 565.816C752.707 575.216 752.727 584.62 752.714 594.026C752.707 596.566 752.944 598.343 753.424 599.356C754.017 600.603 754.934 601.57 756.174 602.256C757.041 602.743 758.281 603.01 759.894 603.056C770.774 603.383 781.654 603.39 792.534 603.076C794.627 603.01 796.164 602.646 797.144 601.986C798.117 601.32 798.864 600.44 799.384 599.346C799.764 598.553 799.954 597.456 799.954 596.056C799.954 586.016 799.954 575.803 799.954 565.416C799.954 565.239 800.025 565.068 800.15 564.942C800.276 564.817 800.446 564.746 800.624 564.746H805.294C805.469 564.746 805.637 564.816 805.761 564.94C805.884 565.063 805.954 565.231 805.954 565.406C805.954 575.466 805.877 585.496 805.724 595.496C805.664 599.523 807.597 601.9 811.524 602.626C814.597 603.193 817.637 603.073 820.644 602.266C824.411 601.253 826.241 598.746 826.134 594.746C825.874 584.933 825.911 575.12 826.244 565.306C826.249 565.167 826.306 565.034 826.403 564.938C826.5 564.841 826.629 564.786 826.764 564.786L831.444 564.766C831.51 564.765 831.576 564.777 831.638 564.803C831.7 564.828 831.756 564.867 831.804 564.915C831.851 564.963 831.889 565.021 831.915 565.085C831.941 565.149 831.954 565.217 831.954 565.286C831.954 573.493 831.954 581.646 831.954 589.746C831.954 594.62 831.967 597.116 831.994 597.236C832.594 600.223 834.751 602.04 838.464 602.686C848.111 604.36 852.774 600.296 852.454 590.496C852.194 582.483 852.374 571.003 852.994 556.056C853 555.906 853.052 555.762 853.142 555.645C853.231 555.528 853.355 555.445 853.494 555.406C854.394 555.173 855.304 555.16 856.224 555.366C856.531 555.44 856.854 555.45 857.194 555.396C858.421 555.203 858.964 555.693 858.824 556.866C858.731 557.653 858.684 558.076 858.684 558.136C858.391 568.13 858.231 578.123 858.204 588.116C858.191 593.656 857.751 597.523 856.884 599.716C855.211 603.956 852.117 606.76 847.604 608.126C844.524 609.066 841.404 609.223 838.244 608.596C835.191 607.983 832.234 606.7 829.374 604.746C829.251 604.662 829.104 604.618 828.954 604.619C828.804 604.621 828.657 604.669 828.534 604.756C824.967 607.33 821.107 608.66 816.954 608.746C811.474 608.86 806.937 607.546 803.344 604.806C803.234 604.722 803.099 604.679 802.964 604.685C802.828 604.69 802.7 604.744 802.604 604.836C799.684 607.61 795.717 608.996 790.704 608.996C779.871 608.996 769.037 608.996 758.204 608.996C755.397 608.996 752.681 607.7 750.054 605.106C749.961 605.013 749.835 604.96 749.702 604.96C749.569 604.96 749.44 605.013 749.344 605.106C746.671 607.7 743.541 608.996 739.954 608.996C721.454 608.996 702.631 608.996 683.484 608.996C683.379 608.996 683.275 609.017 683.179 609.059C683.082 609.101 682.996 609.163 682.924 609.24C682.853 609.317 682.798 609.408 682.764 609.507C682.729 609.606 682.716 609.712 682.724 609.816C682.984 613.263 682.541 616.72 681.394 620.186C680.561 622.686 678.954 624.72 676.574 626.286C674.867 627.406 672.521 628.27 669.534 628.876C663.654 630.076 657.471 630.333 650.984 629.646C650.839 629.629 650.705 629.56 650.609 629.453C650.513 629.345 650.461 629.208 650.464 629.066L650.494 624.556C650.494 624.491 650.507 624.426 650.534 624.366C650.56 624.306 650.598 624.252 650.647 624.206C650.695 624.16 650.753 624.125 650.816 624.101C650.879 624.077 650.946 624.065 651.014 624.066C653.661 624.093 656.307 624.133 658.954 624.186C663.321 624.28 667.237 623.8 670.704 622.746C671.971 622.36 673.111 621.67 674.124 620.676C674.991 619.83 675.644 618.723 676.084 617.356C676.904 614.843 677.191 612.243 676.944 609.556C676.929 609.418 676.865 609.291 676.763 609.199C676.662 609.106 676.53 609.056 676.394 609.056ZM652.644 599.796C655.317 602.096 658.754 603.246 662.954 603.246C667.367 603.246 671.847 603.246 676.394 603.246C676.542 603.246 676.685 603.187 676.79 603.082C676.895 602.977 676.954 602.835 676.954 602.686C676.954 595.793 676.954 589.053 676.954 582.466C676.954 576.98 676.947 574.17 676.934 574.036C676.587 571.016 675.494 568.34 673.654 566.006C671.761 563.606 669.217 562.086 666.024 561.446C661.724 560.593 657.701 561.276 653.954 563.496C650.147 565.756 648.064 569.006 647.704 573.246C647.397 576.873 647.277 581.873 647.344 588.246C647.397 592.946 649.164 596.796 652.644 599.796Z" fill="white"/>
<path d="M300.764 603.185C339.577 603.259 378.39 603.279 417.204 603.245C419.891 603.245 422.064 603.19 423.724 603.076C425.071 602.99 426.051 602.579 426.664 601.845C427.397 600.952 427.757 599.835 427.744 598.495C427.631 586.829 427.641 575.162 427.774 563.495C427.794 561.795 428.094 559.852 428.674 557.665C428.705 557.545 428.775 557.439 428.872 557.363C428.97 557.287 429.09 557.246 429.214 557.245H433.214C433.318 557.245 433.42 557.267 433.516 557.308C433.611 557.348 433.697 557.408 433.769 557.482C433.841 557.557 433.897 557.644 433.934 557.741C433.971 557.838 433.988 557.942 433.984 558.045C433.524 571.425 433.397 584.492 433.604 597.245C433.704 603.305 431.51 607.025 427.024 608.405C425.744 608.799 422.007 608.995 415.814 608.995C363.434 608.995 310.944 608.995 258.344 608.995C258.18 608.995 258.022 608.932 257.906 608.818C257.789 608.703 257.724 608.548 257.724 608.386L257.744 603.816C257.744 603.683 257.797 603.555 257.893 603.459C257.988 603.364 258.118 603.308 258.254 603.305L293.764 603.066C293.899 603.066 294.028 603.013 294.125 602.918C294.222 602.823 294.279 602.692 294.284 602.555C294.537 594.969 294.571 587.379 294.384 579.785C294.264 574.925 293.637 571.322 292.504 568.975C289.864 563.502 285.04 560.885 278.034 561.125C275.647 561.205 274.424 561.245 274.364 561.245C272.431 561.245 270.431 561.245 268.364 561.245C268.278 561.245 268.192 561.23 268.113 561.197C268.033 561.165 267.961 561.118 267.901 561.058C267.84 560.999 267.793 560.928 267.761 560.85C267.729 560.773 267.713 560.689 267.714 560.605L267.744 556.055C267.744 555.922 267.799 555.795 267.896 555.699C267.993 555.604 268.125 555.548 268.264 555.545C270.59 555.492 272.917 555.472 275.244 555.485C275.297 555.485 276.434 555.469 278.654 555.435C288.574 555.275 295.087 559.149 298.194 567.055C299.354 570.002 299.997 574.872 300.124 581.665C300.251 588.665 300.301 595.669 300.274 602.675C300.273 602.742 300.284 602.808 300.308 602.87C300.332 602.932 300.368 602.989 300.414 603.036C300.46 603.084 300.514 603.121 300.574 603.146C300.634 603.172 300.699 603.185 300.764 603.185Z" fill="white"/>
<path d="M488.724 604.706C483.111 600.139 480.454 594.149 480.754 586.735C480.888 583.322 480.934 579.909 480.894 576.495C480.868 574.022 481.194 571.625 481.874 569.305C482.534 567.065 483.704 565.002 485.384 563.115C492.104 555.582 500.691 553.562 511.144 557.055C514.724 558.255 517.394 560.669 519.154 564.295C521.514 569.162 522.448 574.312 521.954 579.745C521.721 582.339 521.778 589.939 522.124 602.545C522.129 602.683 522.185 602.815 522.28 602.912C522.374 603.008 522.501 603.064 522.634 603.066C538.661 603.28 554.684 603.355 570.704 603.295C573.511 603.282 575.151 602.199 575.624 600.045C575.691 599.752 575.707 598.053 575.674 594.946C575.554 582.626 575.804 570.313 576.424 558.006C576.432 557.846 576.491 557.693 576.59 557.581C576.688 557.47 576.819 557.407 576.954 557.405L581.764 557.355C581.83 557.355 581.895 557.37 581.955 557.399C582.015 557.428 582.069 557.471 582.114 557.526C582.159 557.58 582.194 557.645 582.216 557.715C582.239 557.785 582.248 557.86 582.244 557.935C581.424 572.729 581.161 585.999 581.454 597.745C581.574 602.405 580.054 605.662 576.894 607.516C575.208 608.502 572.324 608.995 568.244 608.995C553.511 608.995 538.544 608.995 523.344 608.995C523.153 608.995 522.963 609.035 522.787 609.11C522.61 609.185 522.451 609.295 522.318 609.433C522.186 609.572 522.082 609.734 522.015 609.914C521.947 610.093 521.916 610.284 521.924 610.475C522.364 621.389 517.538 627.622 507.444 629.175C501.804 630.049 496.081 630.232 490.274 629.725C490.119 629.715 489.974 629.646 489.868 629.53C489.762 629.415 489.704 629.263 489.704 629.105V624.526C489.704 624.452 489.719 624.378 489.749 624.31C489.778 624.242 489.822 624.179 489.876 624.129C489.931 624.078 489.995 624.04 490.065 624.016C490.135 623.991 490.21 623.98 490.284 623.985C494.811 624.265 499.284 624.302 503.704 624.095C513.004 623.675 517.128 618.872 516.074 609.685C516.06 609.546 515.996 609.416 515.893 609.319C515.791 609.222 515.656 609.164 515.514 609.155C509.994 608.895 505.641 608.842 502.454 608.995C497.128 609.249 492.551 607.82 488.724 604.706ZM491.874 599.826C494.754 602.266 498.114 603.45 501.954 603.376C506.454 603.289 511.017 603.246 515.644 603.246C515.793 603.246 515.935 603.187 516.04 603.082C516.145 602.977 516.204 602.835 516.204 602.686C516.204 595.526 516.204 588.529 516.204 581.696C516.204 576.796 516.18 574.166 516.134 573.806C515.8 571.006 514.814 568.509 513.174 566.316C511.127 563.589 508.357 561.962 504.864 561.436C501.004 560.85 497.208 561.563 493.474 563.576C489.494 565.716 487.321 569.023 486.954 573.496C486.601 577.843 486.538 582.553 486.764 587.626C486.898 590.586 487.248 592.79 487.814 594.236C488.668 596.396 490.021 598.26 491.874 599.826Z" fill="white"/>
<path d="M613.634 561.465C609.494 561.285 605.124 561.216 600.524 561.256C600.372 561.256 600.227 561.197 600.121 561.094C600.014 560.991 599.954 560.852 599.954 560.706L599.994 556.066C599.996 555.929 600.052 555.798 600.149 555.701C600.246 555.604 600.376 555.548 600.514 555.545C603.414 555.479 606.31 555.412 609.204 555.345C622.837 555.052 630.504 561.602 632.204 574.995C632.55 577.735 632.64 581.625 632.474 586.665C632.314 591.619 631.624 595.409 630.404 598.035C628.277 602.595 624.857 605.782 620.144 607.595C617.71 608.529 614.02 608.995 609.074 608.995C602.874 608.995 596.68 608.995 590.494 608.995C590.392 608.995 590.291 608.977 590.197 608.938C590.102 608.9 590.017 608.843 589.946 608.772C589.874 608.701 589.817 608.618 589.779 608.526C589.741 608.434 589.722 608.335 589.724 608.235L589.744 603.805C589.744 603.673 589.797 603.545 589.893 603.452C589.989 603.358 590.118 603.305 590.254 603.305C595.887 603.252 601.52 603.229 607.154 603.235C612.18 603.235 615.814 602.772 618.054 601.845C623.987 599.372 626.844 594.255 626.624 586.495C626.55 583.889 626.5 581.279 626.474 578.665C626.44 575.285 626.08 572.722 625.394 570.975C624.167 567.869 622.167 565.312 619.394 563.305C617.827 562.172 615.907 561.559 613.634 561.465Z" fill="white"/>
<path d="M197.024 603.186C197.41 603.186 197.474 603.043 197.214 602.756C194.314 599.623 192.46 595.956 191.654 591.756C190.4 585.269 190.75 578.599 192.704 571.746C193.517 568.886 194.814 566.479 196.594 564.526C198.087 562.893 200.164 561.216 202.824 559.496C206.917 556.863 211.544 555.623 216.704 555.776C221.43 555.916 225.964 556.903 230.304 558.736C230.452 558.797 230.583 558.891 230.686 559.01C230.788 559.128 230.86 559.267 230.894 559.416C231.314 561.216 231.017 562.859 230.004 564.346C229.926 564.458 229.807 564.536 229.67 564.567C229.532 564.599 229.385 564.58 229.254 564.516C220.827 560.303 212.747 560.233 205.014 564.306C201.88 565.959 199.63 568.959 198.264 573.306C197.324 576.299 196.817 579.336 196.744 582.416C196.664 585.883 196.937 588.923 197.564 591.536C199.257 598.603 204.307 602.376 212.714 602.856C219.2 603.229 226.2 603.349 233.714 603.216C233.839 603.215 233.962 603.237 234.078 603.281C234.194 603.325 234.3 603.39 234.389 603.472C234.478 603.555 234.549 603.654 234.598 603.762C234.647 603.871 234.673 603.988 234.674 604.106L234.684 608.486C234.685 608.553 234.673 608.619 234.647 608.68C234.622 608.742 234.584 608.798 234.535 608.846C234.487 608.893 234.429 608.931 234.365 608.957C234.301 608.983 234.233 608.996 234.164 608.996H81.4739C81.336 608.996 81.2037 608.941 81.1062 608.844C81.0087 608.746 80.9539 608.614 80.9539 608.476C80.9539 594.156 80.9639 579.996 80.9839 565.996C80.9839 564.863 81.1939 563.843 81.6139 562.936C81.6791 562.799 81.7101 562.648 81.7041 562.496C81.6982 562.344 81.6555 562.196 81.5799 562.064C81.5042 561.933 81.3977 561.821 81.2695 561.74C81.1413 561.658 80.9953 561.609 80.8439 561.596C76.6506 561.223 72.7906 561.543 69.2639 562.556C66.1439 563.449 63.7939 564.936 62.2139 567.016C60.4272 569.363 59.5272 572.189 59.5139 575.496C59.4739 586.576 59.4539 597.659 59.4539 608.746C59.4539 613.546 58.4339 617.966 56.3939 622.006C54.4072 625.953 51.5472 629.279 47.8139 631.986C42.0272 636.179 35.4072 637.849 27.9539 636.996C16.5872 635.696 8.9206 630.076 4.95391 620.136C3.78057 617.196 3.08724 613.356 2.8739 608.616C2.54724 601.056 2.54724 593.493 2.8739 585.926C2.87879 585.775 2.93437 585.632 3.02922 585.526C3.12407 585.42 3.25099 585.359 3.38391 585.356L7.7939 585.326C7.88219 585.325 7.96985 585.342 8.05169 585.379C8.13353 585.415 8.2079 585.468 8.2704 585.537C8.3328 585.605 8.3822 585.686 8.4154 585.775C8.4487 585.864 8.4651 585.96 8.4639 586.056C8.3706 593.216 8.4006 600.179 8.5539 606.946C8.6539 611.559 9.2172 615.183 10.2439 617.816C12.6706 624.043 16.8672 628.106 22.8339 630.006C29.5872 632.159 36.0739 631.693 42.2939 628.606C47.1939 626.173 50.5339 622.223 52.3139 616.756C53.2406 613.916 53.7039 609.023 53.7039 602.076C53.7039 592.803 53.7039 583.526 53.7039 574.246C53.7039 570.253 55.1239 566.673 57.9639 563.506C60.2906 560.906 62.9806 558.919 66.0339 557.546C68.3939 556.493 71.5939 555.909 75.6339 555.796C79.2139 555.696 82.9872 555.689 86.9539 555.776C87.0655 555.779 87.1755 555.803 87.2773 555.849C87.379 555.895 87.4704 555.96 87.546 556.041C87.6217 556.122 87.6799 556.218 87.7174 556.322C87.7548 556.426 87.7706 556.536 87.7639 556.646C87.6106 559.379 87.4439 561.956 87.2639 564.376C87.0572 567.163 86.9439 569.746 86.9239 572.126C86.8639 582.386 86.8106 592.619 86.7639 602.826C86.7639 602.937 86.8092 603.044 86.8899 603.123C86.9705 603.202 87.0799 603.246 87.1939 603.246L197.024 603.186Z" fill="white"/>
<path d="M423.984 623.156C426.154 623.156 427.914 621.396 427.914 619.226C427.914 617.055 426.154 615.296 423.984 615.296C421.813 615.296 420.054 617.055 420.054 619.226C420.054 621.396 421.813 623.156 423.984 623.156Z" fill="white"/>
<path d="M566.524 623.146C568.689 623.146 570.443 621.391 570.443 619.226C570.443 617.061 568.689 615.306 566.524 615.306C564.359 615.306 562.604 617.061 562.604 619.226C562.604 621.391 564.359 623.146 566.524 623.146Z" fill="white"/>
<path d="M577.704 623.166C579.88 623.166 581.644 621.402 581.644 619.226C581.644 617.05 579.88 615.286 577.704 615.286C575.528 615.286 573.764 617.05 573.764 619.226C573.764 621.402 575.528 623.166 577.704 623.166Z" fill="white"/>
<path d="M440.254 629.456C439.361 626.269 439.448 623.219 440.514 620.306C440.928 619.186 441.614 618.242 442.574 617.476C443.354 616.856 444.388 616.422 445.674 616.176C452.554 614.849 456.461 617.869 457.394 625.236C457.405 625.312 457.401 625.39 457.385 625.464C457.368 625.537 457.339 625.606 457.298 625.664C457.257 625.723 457.207 625.77 457.149 625.803C457.092 625.836 457.029 625.854 456.964 625.856L452.814 625.876C452.624 625.877 452.438 625.801 452.288 625.662C452.138 625.523 452.034 625.33 451.994 625.116C451.468 622.289 449.948 620.916 447.434 620.996C446.985 621.01 446.553 621.165 446.197 621.437C445.842 621.71 445.582 622.087 445.454 622.516C444.768 624.789 445.008 626.856 446.174 628.716C446.422 629.108 446.769 629.432 447.184 629.658C447.598 629.883 448.066 630.003 448.544 630.006L456.894 630.046C456.966 630.046 457.037 630.059 457.103 630.085C457.169 630.111 457.229 630.148 457.28 630.196C457.33 630.243 457.37 630.3 457.396 630.361C457.423 630.423 457.436 630.489 457.434 630.556L457.334 634.806C457.332 634.947 457.271 635.082 457.167 635.181C457.062 635.28 456.921 635.336 456.774 635.336H439.154C439.009 635.335 438.868 635.282 438.758 635.187C438.648 635.091 438.576 634.96 438.554 634.816C438.441 634.102 438.394 633.386 438.414 632.666C438.421 632.552 438.401 632.109 438.354 631.336C438.301 630.309 438.814 629.822 439.894 629.876C439.95 629.878 440.005 629.869 440.056 629.847C440.107 629.825 440.152 629.793 440.187 629.752C440.223 629.711 440.247 629.662 440.259 629.611C440.27 629.559 440.269 629.506 440.254 629.456Z" fill="white"/>
<path d="M25.5137 648.186C27.6787 648.186 29.4337 646.431 29.4337 644.266C29.4337 642.101 27.6787 640.346 25.5137 640.346C23.3488 640.346 21.5937 642.101 21.5937 644.266C21.5937 646.431 23.3488 648.186 25.5137 648.186Z" fill="white"/>
<path d="M36.6737 648.186C38.8442 648.186 40.6037 646.427 40.6037 644.256C40.6037 642.086 38.8442 640.326 36.6737 640.326C34.5033 640.326 32.7437 642.086 32.7437 644.256C32.7437 646.427 34.5033 648.186 36.6737 648.186Z" fill="white"/>
</svg>
