<svg width="858" height="387" viewBox="0 0 858 387" fill="none" xmlns="http://www.w3.org/2000/svg">
<path d="M239.475 44.7059C239.361 44.2125 239.438 43.7259 239.705 43.2459C245.138 33.4125 252.368 25.1559 261.395 18.4759C275.461 8.06254 291.398 2.0692 309.205 0.495871C319.478 -0.410796 329.395 -0.0741272 338.955 1.50587C353.315 3.87921 366.351 9.3492 378.065 17.9159C385.905 23.6492 392.525 30.7592 397.925 39.2459C398.034 39.4174 398.079 39.622 398.051 39.8233C398.024 40.0247 397.926 40.2098 397.775 40.3459C396.601 41.4259 395.668 42.5259 394.975 43.6459C393.848 45.4459 393.041 46.6059 392.555 47.1259C379.621 60.9059 365.871 73.8159 351.305 85.8559C320.965 110.929 287.331 130.286 250.405 143.926C250.227 143.993 250.031 144.002 249.847 143.952C249.662 143.902 249.497 143.795 249.375 143.646C239.841 131.999 233.901 118.976 231.555 104.576C230.695 99.2959 230.245 93.9992 230.205 88.6859C230.165 83.0459 230.455 77.7559 231.075 72.8159C232.261 63.3225 235.041 54.2592 239.415 45.6259C239.537 45.3881 239.558 45.0588 239.475 44.7059Z" fill="white"/>
<path d="M520.044 105.206C519.98 105.23 519.922 105.269 519.875 105.319C519.828 105.369 519.793 105.429 519.772 105.495C519.752 105.56 519.747 105.63 519.758 105.698C519.768 105.765 519.795 105.83 519.834 105.886C531.527 122.019 543.087 138.036 554.514 153.936C556.681 156.949 557.221 160.143 556.134 163.516C555.261 166.209 553.727 168.193 551.534 169.466C550.101 170.299 547.801 170.773 544.634 170.886C533.721 171.286 525.494 171.239 519.954 170.746C517.134 170.493 514.567 168.819 512.254 165.726C498.887 147.839 485.557 129.926 472.264 111.986C471.217 110.579 470.611 109.816 470.444 109.696C469.664 109.163 468.591 109.049 467.224 109.356C467.082 109.388 466.954 109.467 466.861 109.581C466.769 109.695 466.717 109.838 466.714 109.986C466.474 126.006 466.381 141.883 466.434 157.616C466.447 161.269 465.997 163.943 465.084 165.636C463.171 169.156 459.794 170.929 454.954 170.956C449.541 170.983 444.124 171.006 438.704 171.026C430.024 171.059 425.701 166.716 425.734 157.996C425.881 120.883 425.954 83.7694 425.954 46.6561C425.954 46.6161 425.977 46.3461 426.024 45.8461C426.091 45.1594 425.817 44.6261 425.204 44.2461C424.291 43.6794 424.354 42.7428 425.394 41.4361C435.221 29.0361 444.584 16.2961 453.484 3.2161C453.57 3.08989 453.686 2.98659 453.822 2.91515C453.958 2.84372 454.11 2.80628 454.264 2.80609C466.831 2.73276 479.394 2.71276 491.954 2.74609C497.727 2.75943 502.611 3.09942 506.604 3.76609C529.937 7.66609 544.411 21.0161 550.024 43.8161C550.091 44.0961 550.237 44.3894 550.464 44.6961C550.851 45.2161 551.097 45.8161 551.204 46.4961C552.777 56.2494 552.037 65.8094 548.984 75.1761C544.151 89.9828 534.504 99.9928 520.044 105.206Z" fill="white"/>
<path d="M611.524 130.186C632.164 130.259 652.807 130.283 673.454 130.256C680.374 130.249 684.481 132.969 685.774 138.416C686.087 139.729 686.247 143.126 686.254 148.606C686.261 152.013 686.207 155.419 686.094 158.826C685.994 161.919 685.444 164.256 684.444 165.836C682.277 169.256 678.697 170.976 673.704 170.996C643.157 171.116 612.611 171.043 582.064 170.776C579.297 170.749 577.151 170.303 575.624 169.436C572.771 167.816 571.034 165.403 570.414 162.196C570.267 161.429 570.204 158.623 570.224 153.776C570.391 109.776 570.161 65.7794 569.534 21.7861C569.447 15.2994 569.567 11.4528 569.894 10.2461C570.814 6.89943 572.984 4.66276 576.404 3.53609C578.011 3.00943 580.904 2.74609 585.084 2.74609C589.084 2.74609 593.081 2.74609 597.074 2.74609C600.414 2.74609 602.917 3.19609 604.584 4.09609C607.317 5.58276 609.011 7.87276 609.664 10.9661C609.824 11.7394 609.944 14.4328 610.024 19.0461C610.624 55.9194 610.954 92.7961 611.014 129.676C611.014 129.743 611.027 129.809 611.053 129.871C611.079 129.933 611.116 129.989 611.163 130.037C611.211 130.084 611.267 130.122 611.329 130.147C611.391 130.173 611.457 130.186 611.524 130.186Z" fill="white"/>
<path d="M705.284 6.59609C706.584 5.01609 708.151 3.9161 709.984 3.2961C711.071 2.92943 712.908 2.74609 715.494 2.74609C734.481 2.74609 753.468 2.74609 772.454 2.74609C783.648 2.74609 793.988 4.14609 803.474 6.94609C810.121 8.91276 816.204 11.5894 821.724 14.9761C832.158 21.3828 840.298 29.9094 846.144 40.5561C846.878 41.8961 847.554 42.9828 848.174 43.8161C849.241 45.2494 849.914 46.3094 850.194 46.9961C854.454 57.3294 856.708 68.4128 856.954 80.2461C857.081 86.3861 856.991 92.1194 856.684 97.4461C856.304 103.946 855.498 109.603 854.264 114.416C852.051 123.096 848.458 131.126 843.484 138.506C839.758 144.033 835.264 148.916 830.004 153.156C817.704 163.069 803.271 168.766 786.704 170.246C779.124 170.926 772.124 171.259 765.704 171.246C749.018 171.206 732.334 171.056 715.654 170.796C712.754 170.756 710.551 170.286 709.044 169.386C705.484 167.259 703.704 163.629 703.704 158.496C703.704 132.909 703.704 107.326 703.704 81.7461C703.704 75.9261 703.634 69.2628 703.494 61.7561C703.241 48.1361 703.061 32.0494 702.954 13.4961C702.941 10.8094 703.718 8.50943 705.284 6.59609ZM773.524 50.2261C770.678 56.1594 767.578 61.9561 764.224 67.6161C763.404 69.0094 762.594 70.1594 761.794 71.0661C760.661 72.3461 759.611 73.3028 758.644 73.9361C753.644 77.2028 747.511 80.4761 740.244 83.7561C739.144 84.2561 738.378 84.7128 737.944 85.1261C736.958 86.0794 736.838 87.0594 737.584 88.0661C738.018 88.6461 738.908 89.2394 740.254 89.8461C746.581 92.6994 752.664 95.9961 758.504 99.7361C759.704 100.509 760.704 101.333 761.504 102.206C762.504 103.293 763.301 104.326 763.894 105.306C767.114 110.639 770.384 116.869 773.704 123.996C774.538 125.783 775.624 126.313 776.964 125.586C777.638 125.219 778.238 124.463 778.764 123.316C781.124 118.169 783.728 113.156 786.574 108.276C788.614 104.776 790.774 102.093 793.054 100.226C796.174 97.6728 799.788 95.5761 803.894 93.9361C806.481 92.8961 809.541 91.3394 813.074 89.2661C814.054 88.6928 814.668 88.0494 814.914 87.3361C815.334 86.0894 814.848 85.1428 813.454 84.4961C806.141 81.1028 799.761 77.7361 794.314 74.3961C793.234 73.7361 792.278 72.9994 791.444 72.1861C790.224 70.9928 789.414 70.0761 789.014 69.4361C786.068 64.7028 782.528 58.0761 778.394 49.5561C777.594 47.9228 776.561 47.4328 775.294 48.0861C774.641 48.4261 774.051 49.1394 773.524 50.2261Z" fill="white"/>
<path d="M157.034 132.626C164.794 130.933 169.684 125.639 171.704 116.746C173.084 110.659 173.734 103.659 173.654 95.7461C173.294 60.4061 172.977 36.9894 172.704 25.4961C172.611 21.6961 172.571 18.5928 172.584 16.1861C172.597 12.3661 173.234 9.53276 174.494 7.6861C176.614 4.55943 180.101 2.99609 184.954 2.99609C189.234 2.99609 193.517 2.99609 197.804 2.99609C203.757 2.99609 207.337 3.17943 208.544 3.5461C211.444 4.41943 213.537 6.29276 214.824 9.16609C215.571 10.8461 215.934 13.4561 215.914 16.9961C215.881 23.2494 215.961 29.4994 216.154 35.7461C216.721 54.2261 216.884 72.7061 216.644 91.1861C216.644 91.3443 216.613 91.5001 216.553 91.6444C216.492 91.7887 216.405 91.9185 216.294 92.0261C209.401 98.9128 202.631 105.916 195.984 113.036C188.444 121.116 181.537 129.706 175.264 138.806C171.131 144.806 168.547 150.306 167.514 155.306C166.314 161.119 167.467 166.313 170.974 170.886C171.009 170.93 171.033 170.982 171.042 171.038C171.052 171.094 171.047 171.151 171.027 171.204C171.008 171.258 170.976 171.305 170.933 171.342C170.891 171.379 170.839 171.405 170.784 171.416C156.637 174.663 142.711 174.299 129.004 170.326C121.704 168.213 115.047 164.686 109.034 159.746C108.868 159.61 108.661 159.532 108.447 159.527C108.233 159.521 108.024 159.588 107.854 159.716C96.2872 168.323 83.6539 172.916 69.9539 173.496C61.8072 173.843 54.2439 173.179 47.2639 171.506C25.2572 166.246 11.0906 152.736 4.76388 130.976C3.29055 125.909 2.23389 120.773 1.59389 115.566C1.18722 112.233 0.94389 107.013 0.86389 99.9061C0.56389 72.4461 0.277222 44.9861 0.00388893 17.5261C-0.0427777 13.2461 0.330551 10.2828 1.12388 8.63609C2.15055 6.49609 3.79722 4.92943 6.06389 3.9361C7.49722 3.30943 9.64055 2.99609 12.4939 2.99609C18.3272 2.99609 24.1605 2.99609 29.9939 2.99609C33.4539 2.99609 36.0139 3.45609 37.6739 4.37609C41.2206 6.34942 42.9806 9.80609 42.9539 14.7461C42.9072 23.5461 43.0472 33.4661 43.3739 44.5061C43.6272 53.0861 43.7772 59.7461 43.8239 64.4861C43.9439 76.6528 43.9905 88.8228 43.9639 100.996C43.9505 106.503 44.5905 111.926 45.8839 117.266C48.0505 126.213 53.4072 131.456 61.9539 132.996C68.2806 134.136 73.6539 132.826 78.0739 129.066C81.0072 126.573 83.2272 122.909 84.7339 118.076C86.2406 113.229 87.0039 108.203 87.0239 102.996C87.0906 81.8294 86.8839 60.6628 86.4039 39.4961C86.0639 24.6894 85.9972 15.7728 86.2039 12.7461C86.4772 8.73943 88.2039 5.93276 91.3839 4.3261C93.1305 3.43943 96.0839 2.99609 100.244 2.99609C104.277 2.99609 108.314 2.99609 112.354 2.99609C117.761 2.99609 120.981 3.14276 122.014 3.4361C124.534 4.14943 126.474 5.67276 127.834 8.0061C128.734 9.5461 129.221 11.8028 129.294 14.7761C130.127 47.8428 130.514 76.1661 130.454 99.7461C130.434 106.493 131.171 112.596 132.664 118.056C134.311 124.076 137.541 128.353 142.354 130.886C146.787 133.213 151.681 133.793 157.034 132.626Z" fill="white"/>
<path d="M296.904 171.506C287.164 169.42 278.064 165.863 269.604 160.836C269.084 160.53 269.104 160.26 269.664 160.026C295.404 149.446 319.554 136.15 342.114 120.136C365.974 103.203 387.981 83.9664 408.134 62.4264C408.554 61.9798 408.834 62.0531 408.974 62.6464C411.627 74.0131 412.371 85.6298 411.204 97.4964C410.244 107.27 407.901 116.216 404.174 124.336C395.314 143.636 381.521 157.426 362.794 165.706C357.001 168.266 350.661 170.27 343.774 171.716C328.301 174.956 312.677 174.886 296.904 171.506Z" fill="white"/>
<path d="M564.644 358.676C557.331 350.249 552.121 340.669 549.014 329.936C547.334 324.122 546.247 317.989 545.754 311.536C545.267 305.122 545.157 298.926 545.424 292.946C546.144 276.919 550.924 262.456 559.764 249.556C570.964 233.222 586.617 222.316 606.724 216.836C630.104 210.462 652.891 211.576 675.084 220.176C679.291 221.809 682.101 223.436 683.514 225.056C685.947 227.842 686.511 231.406 685.204 235.746C684.491 238.119 682.577 243.756 679.464 252.656C678.344 255.869 677.067 258.156 675.634 259.516C672.047 262.942 667.707 263.232 662.614 260.386C661.32 259.659 660.661 259.292 660.634 259.286C649.987 253.819 638.991 251.999 627.644 253.826C620.804 254.926 614.624 257.269 609.104 260.856C596.837 268.829 590.287 281.042 589.454 297.496C589.161 303.269 589.614 308.739 590.814 313.906C592.08 319.372 594.264 324.319 597.364 328.746C604.237 338.552 614.124 344.269 627.024 345.896C634.471 346.836 641.594 346.016 648.394 343.436C649.994 342.822 651.534 341.862 653.014 340.556C654.881 338.916 655.824 337.229 655.844 335.496C655.917 330.162 655.954 324.506 655.954 318.526C655.954 318.421 655.933 318.318 655.892 318.221C655.851 318.125 655.791 318.037 655.716 317.964C655.641 317.89 655.551 317.832 655.453 317.793C655.355 317.754 655.25 317.734 655.144 317.736C645.631 317.849 636.421 317.802 627.514 317.596C624.254 317.522 621.814 316.999 620.194 316.026C616.807 313.999 615.091 310.656 615.044 305.996C614.984 300.162 614.997 294.329 615.084 288.496C615.157 283.696 616.9 280.362 620.314 278.496C622.14 277.496 625.321 276.996 629.854 276.996C648.387 277.002 666.921 277.032 685.454 277.086C690.034 277.099 693.32 278.792 695.314 282.166C696.234 283.732 696.714 286.049 696.754 289.116C696.96 304.982 697.027 323.609 696.954 344.996C696.941 349.249 696.297 353.286 695.024 357.106C693.784 360.839 691.764 364.302 688.964 367.496C685.097 371.909 680.451 375.436 675.024 378.076C669.764 380.629 664.32 382.582 658.694 383.936C653.634 385.149 647.947 386.026 641.634 386.566C630.794 387.486 620 386.789 609.254 384.476C598.42 382.142 588.527 377.946 579.574 371.886C573.967 368.086 568.991 363.682 564.644 358.676Z" fill="white"/>
<path d="M42.5143 257.056L42.4543 276.586C42.4543 276.761 42.5238 276.929 42.6476 277.053C42.7714 277.177 42.9393 277.246 43.1143 277.246C62.5076 277.246 81.871 277.246 101.204 277.246C105.604 277.246 108.711 278.936 110.524 282.316C111.478 284.089 111.954 286.956 111.954 290.916C111.954 294.869 111.954 298.823 111.954 302.776C111.954 307.289 111.564 310.376 110.784 312.036C109.711 314.303 107.954 315.919 105.514 316.886C104.088 317.453 101.838 317.746 98.7643 317.766C80.331 317.846 61.7443 317.903 43.0043 317.936C42.8584 317.936 42.7185 317.994 42.6154 318.097C42.5122 318.2 42.4543 318.34 42.4543 318.486V342.576C42.4543 342.754 42.5249 342.924 42.6505 343.05C42.7762 343.176 42.9466 343.246 43.1243 343.246C66.4976 343.239 89.621 343.333 112.494 343.526C115.621 343.553 117.974 343.989 119.554 344.836C122.034 346.163 123.628 348.156 124.334 350.816C124.581 351.749 124.704 355.049 124.704 360.716C124.704 363.003 124.704 365.286 124.704 367.566C124.704 372.113 124.704 374.399 124.704 374.426C124.304 378.213 122.504 380.946 119.304 382.626C117.564 383.539 114.914 383.996 111.354 383.996C81.0676 383.996 50.781 383.996 20.4943 383.996C14.341 383.996 10.8243 383.886 9.9443 383.666C6.99763 382.926 4.76764 381.176 3.25431 378.416C2.38764 376.843 1.94764 374.646 1.93431 371.826C1.62097 324.326 1.61764 276.826 1.9243 229.326C1.95097 225.426 2.44763 222.633 3.4143 220.946C4.58097 218.913 6.2943 217.453 8.5543 216.566C9.94097 216.019 12.081 215.746 14.9743 215.746C46.681 215.746 78.3843 215.746 110.084 215.746C114.551 215.746 117.714 216.239 119.574 217.226C122.368 218.706 124.034 221.089 124.574 224.376C124.661 224.903 124.704 227.649 124.704 232.616C124.704 235.749 124.704 238.886 124.704 242.026C124.704 246.419 124.258 249.493 123.364 251.246C121.671 254.566 118.618 256.233 114.204 256.246C90.471 256.326 66.7376 256.429 43.0043 256.556C42.8744 256.556 42.7497 256.609 42.6578 256.703C42.5659 256.796 42.5143 256.923 42.5143 257.056Z" fill="white"/>
<path d="M152.404 383.316C149.824 382.296 147.931 380.689 146.724 378.496C145.924 377.043 145.514 374.753 145.494 371.626C145.234 326.133 145.211 280.636 145.424 235.136C145.457 228.323 145.681 224.253 146.094 222.926C147.601 218.139 151.637 215.746 158.204 215.746C256.457 215.746 354.707 215.749 452.954 215.756C458.894 215.756 464.771 216.239 470.584 217.206C476.564 218.193 482.224 219.726 487.564 221.806C512.017 231.313 527.231 249.543 533.204 276.496C534.271 281.316 534.874 287.086 535.014 293.806C535.154 300.359 535.071 306.149 534.764 311.176C534.317 318.576 533.131 325.183 531.204 330.996C521.904 359.109 502.657 376.123 473.464 382.036C466.944 383.349 460.357 384.006 453.704 384.006C354.371 383.999 255.134 383.996 155.994 383.996C154.754 383.996 153.557 383.769 152.404 383.316ZM485.474 263.726C476.481 256.073 466.307 252.246 454.954 252.246C362.954 252.246 270.954 252.246 178.954 252.246C178.888 252.246 178.823 252.259 178.763 252.284C178.702 252.309 178.647 252.346 178.6 252.393C178.554 252.439 178.517 252.494 178.492 252.555C178.467 252.615 178.454 252.68 178.454 252.746V347.936C178.454 348.151 178.539 348.357 178.691 348.509C178.843 348.661 179.049 348.746 179.264 348.746C265.644 348.746 351.624 348.806 437.204 348.926C446.724 348.933 453.474 348.789 457.454 348.496C469.994 347.563 480.474 342.793 488.894 334.186C495.847 327.073 500.177 318.743 501.884 309.196C503.071 302.509 502.904 295.896 501.384 289.356C499.051 279.309 493.747 270.766 485.474 263.726Z" fill="white"/>
<path d="M754.264 343.186C784.491 343.219 814.714 343.336 844.934 343.536C848.094 343.556 850.477 344.003 852.084 344.876C854.597 346.243 856.197 348.283 856.884 350.996C857.097 351.829 857.204 355.173 857.204 361.026C857.204 363.346 857.204 365.669 857.204 367.996C857.204 372.083 857.164 374.409 857.084 374.976C856.557 378.696 854.691 381.299 851.484 382.786C849.737 383.593 846.827 383.996 842.754 383.996C804.501 383.996 766.244 383.996 727.984 383.996C723.537 383.996 720.431 383.523 718.664 382.576C716.457 381.389 714.901 379.566 713.994 377.106C713.467 375.673 713.204 373.399 713.204 370.286C713.204 322.773 713.204 275.259 713.204 227.746C713.204 221.666 715.954 217.749 721.454 215.996C722.461 215.676 725.044 215.523 729.204 215.536C759.817 215.669 790.434 215.739 821.054 215.746C825.901 215.746 829.247 216.253 831.094 217.266C834.541 219.146 836.254 222.556 836.234 227.496C836.214 233.496 836.204 239.496 836.204 245.496C836.204 249.876 834.477 253.006 831.024 254.886C829.371 255.793 826.911 256.253 823.644 256.266C800.577 256.366 777.514 256.443 754.454 256.496C754.321 256.496 754.194 256.549 754.101 256.642C754.007 256.736 753.954 256.863 753.954 256.996V276.686C753.954 276.834 754.013 276.977 754.118 277.082C754.223 277.187 754.366 277.246 754.514 277.246C773.641 277.246 792.704 277.223 811.704 277.176C816.231 277.163 819.514 278.749 821.554 281.936C822.654 283.656 823.264 286.316 823.384 289.916C823.551 295.029 823.547 300.143 823.374 305.256C823.261 308.689 822.667 311.229 821.594 312.876C819.487 316.103 816.024 317.726 811.204 317.746C792.291 317.833 773.374 317.916 754.454 317.996C754.324 317.996 754.199 318.048 754.108 318.139C754.016 318.231 753.964 318.356 753.964 318.486L753.784 342.676C753.783 342.742 753.794 342.809 753.818 342.87C753.841 342.932 753.876 342.989 753.921 343.036C753.966 343.084 754.019 343.121 754.078 343.147C754.137 343.173 754.2 343.186 754.264 343.186Z" fill="white"/>
</svg>
